<svg width="375" height="202" viewBox="0 0 375 202" fill="none" xmlns="http://www.w3.org/2000/svg">
<rect opacity="0.55" x="0.5" y="6.5" width="374" height="189" fill="#EDEDED" stroke="url(#paint0_linear_1:2360)"/>
<path d="M372.106 96.0532H371.806C370.952 96.0532 370.267 95.3432 370.267 94.9832V84.9432C370.267 84.5032 370.952 84.1732 371.806 84.4232L372.106 84.5132C372.96 84.7232 373.645 85.4532 373.645 85.8732V94.9432C373.527 95.2747 373.316 95.5592 373.04 95.7579C372.765 95.9566 372.439 96.0597 372.106 96.0532Z" fill="url(#paint1_linear_1:2360)"/>
<path d="M365.933 96.0531H365.632C365.281 96.0662 364.937 95.9501 364.657 95.7243C364.376 95.4985 364.178 95.1767 364.094 94.8131V80.0531C364.094 79.4631 364.788 79.4831 365.632 80.2931L365.933 80.5831C366.683 81.2455 367.22 82.1402 367.471 83.1431V94.9431C367.471 95.3531 366.787 96.0531 365.933 96.0531Z" fill="url(#paint2_linear_1:2360)"/>
<path d="M359.769 96.0533H359.478C359.09 96.055 358.717 95.9019 358.43 95.6242C358.143 95.3465 357.965 94.9644 357.93 94.5533V73.6233C357.93 72.8633 358.624 72.8133 359.478 73.7233L359.769 74.0533C360.56 74.8935 361.099 75.9656 361.317 77.1333V94.6933C361.256 95.0807 361.066 95.4317 360.781 95.6816C360.497 95.9315 360.137 96.0635 359.769 96.0533Z" fill="url(#paint3_linear_1:2360)"/>
<path d="M353.595 96.0532H353.295C352.886 96.0453 352.496 95.8673 352.208 95.5571C351.921 95.2469 351.758 94.8292 351.756 94.3932V68.8731C351.756 67.9831 352.441 67.5332 353.295 68.0932L353.595 68.2931C354.018 68.6172 354.374 69.0317 354.639 69.5104C354.904 69.989 355.072 70.5213 355.134 71.0732V94.4632C355.115 94.8869 354.945 95.2871 354.659 95.5824C354.373 95.8777 353.993 96.046 353.595 96.0532Z" fill="url(#paint4_linear_1:2360)"/>
<path d="M347.421 96.0532H347.121C346.918 96.0532 346.717 96.0104 346.53 95.9274C346.342 95.8444 346.172 95.7227 346.029 95.5693C345.886 95.416 345.773 95.234 345.696 95.0339C345.62 94.8337 345.581 94.6194 345.582 94.4032V68.1232C345.581 67.9074 345.62 67.6936 345.697 67.494C345.774 67.2944 345.887 67.1131 346.03 66.9606C346.173 66.808 346.343 66.6873 346.53 66.6053C346.718 66.5234 346.918 66.4819 347.121 66.4832H347.421C347.624 66.4832 347.825 66.5259 348.012 66.609C348.199 66.692 348.369 66.8137 348.512 66.9671C348.655 67.1204 348.769 67.3024 348.845 67.5025C348.922 67.7026 348.961 67.917 348.96 68.1332V94.4032C348.961 94.6194 348.922 94.8337 348.845 95.0339C348.769 95.234 348.655 95.416 348.512 95.5693C348.369 95.7227 348.199 95.8444 348.012 95.9274C347.825 96.0104 347.624 96.0532 347.421 96.0532Z" fill="url(#paint5_linear_1:2360)"/>
<path d="M341.247 66.4731H340.947C340.097 66.4731 339.408 67.2074 339.408 68.1131V94.4031C339.408 95.3089 340.097 96.0431 340.947 96.0431H341.247C342.097 96.0431 342.786 95.3089 342.786 94.4031V68.1131C342.786 67.2074 342.097 66.4731 341.247 66.4731Z" fill="url(#paint6_linear_1:2360)"/>
<path d="M335.074 66.4731H334.774C333.924 66.4731 333.235 67.2074 333.235 68.1131V94.4031C333.235 95.3089 333.924 96.0431 334.774 96.0431H335.074C335.924 96.0431 336.613 95.3089 336.613 94.4031V68.1131C336.613 67.2074 335.924 66.4731 335.074 66.4731Z" fill="url(#paint7_linear_1:2360)"/>
<path d="M328.91 66.4731H328.61C327.76 66.4731 327.071 67.2074 327.071 68.1131V94.4031C327.071 95.3089 327.76 96.0431 328.61 96.0431H328.91C329.76 96.0431 330.448 95.3089 330.448 94.4031V68.1131C330.448 67.2074 329.76 66.4731 328.91 66.4731Z" fill="url(#paint8_linear_1:2360)"/>
<path d="M322.736 96.0532H322.436C322.027 96.0506 321.635 95.8756 321.347 95.5664C321.059 95.2573 320.897 94.8391 320.897 94.4032V67.7632C320.891 67.5579 320.929 67.3537 321.009 67.1664C321.088 66.9791 321.206 66.8136 321.355 66.6824C321.503 66.5512 321.678 66.4579 321.865 66.4095C322.052 66.3612 322.248 66.359 322.436 66.4032H322.736C323.145 66.4259 323.531 66.6127 323.817 66.9261C324.102 67.2396 324.266 67.6565 324.275 68.0932V94.4032C324.276 94.6194 324.237 94.8338 324.16 95.0339C324.084 95.234 323.97 95.416 323.827 95.5694C323.684 95.7227 323.514 95.8444 323.327 95.9275C323.14 96.0105 322.939 96.0532 322.736 96.0532Z" fill="url(#paint9_linear_1:2360)"/>
<path d="M316.609 96.0533H316.319C316.112 96.0586 315.907 96.0199 315.715 95.9393C315.522 95.8588 315.347 95.7381 315.2 95.5844C315.052 95.4306 314.934 95.2469 314.854 95.0441C314.774 94.8412 314.733 94.6234 314.733 94.4033V65.7433C314.733 64.4933 315.427 64.1633 316.281 64.5433L316.572 64.6733C317.016 64.8601 317.399 65.1811 317.674 65.5968C317.949 66.0125 318.104 66.5049 318.12 67.0133V94.4033C318.12 94.834 317.962 95.2478 317.68 95.5561C317.398 95.8644 317.013 96.0428 316.609 96.0533Z" fill="url(#paint10_linear_1:2360)"/>
<path d="M310.398 96.0531H310.098C309.687 96.0531 309.294 95.8793 309.003 95.5699C308.713 95.2604 308.55 94.8407 308.55 94.4031V63.0431C308.55 61.3931 309.244 60.9631 310.098 61.4131L310.398 61.5631C310.89 61.8623 311.294 62.3012 311.566 62.8309C311.838 63.3606 311.966 63.9603 311.937 64.5631V94.4031C311.937 94.839 311.775 95.2572 311.487 95.5663C311.198 95.8755 310.807 96.0505 310.398 96.0531Z" fill="url(#paint11_linear_1:2360)"/>
<path d="M304.224 96.0533H303.924C303.721 96.0533 303.52 96.0105 303.333 95.9275C303.146 95.8444 302.976 95.7227 302.833 95.5694C302.69 95.416 302.576 95.2341 302.5 95.0339C302.423 94.8338 302.384 94.6195 302.385 94.4033V60.9433C302.385 58.9433 303.07 58.3433 303.924 58.6333L304.224 58.7333C305.078 59.0333 305.763 60.1433 305.763 61.9633V94.4033C305.764 94.6195 305.725 94.8338 305.649 95.0339C305.572 95.2341 305.459 95.416 305.316 95.5694C305.173 95.7227 305.003 95.8444 304.815 95.9275C304.628 96.0105 304.427 96.0533 304.224 96.0533Z" fill="url(#paint12_linear_1:2360)"/>
<path d="M298.051 96.0532H297.751C297.342 96.0506 296.951 95.8756 296.663 95.5664C296.374 95.2573 296.212 94.8391 296.212 94.4032V60.3132C296.212 58.3132 296.907 57.6132 297.751 57.6532H298.051C298.905 57.6532 299.599 58.4332 299.599 60.4632V94.4032C299.599 94.8408 299.436 95.2605 299.146 95.57C298.856 95.8794 298.462 96.0532 298.051 96.0532Z" fill="url(#paint13_linear_1:2360)"/>
<path d="M291.878 96.0533H291.587C291.176 96.0533 290.782 95.8794 290.492 95.57C290.202 95.2606 290.039 94.8409 290.039 94.4033V58.7633C290.039 57.0633 290.733 56.4633 291.587 56.6733L291.878 56.7433C292.731 56.9433 293.426 57.8933 293.426 59.7433V94.4033C293.426 94.8409 293.263 95.2606 292.972 95.57C292.682 95.8794 292.288 96.0533 291.878 96.0533Z" fill="url(#paint14_linear_1:2360)"/>
<path d="M285.713 96.0531H285.413C285.21 96.0531 285.009 96.0104 284.822 95.9273C284.634 95.8443 284.464 95.7226 284.321 95.5692C284.178 95.4159 284.065 95.2339 283.988 95.0338C283.912 94.8337 283.873 94.6193 283.874 94.4031V56.5031C283.874 55.2031 284.559 54.7131 285.413 54.9531L285.713 55.0431C286.217 55.2486 286.643 55.628 286.922 56.1208C287.2 56.6137 287.317 57.1918 287.252 57.7631V94.4031C287.252 94.839 287.09 95.2572 286.802 95.5663C286.513 95.8755 286.122 96.0505 285.713 96.0531Z" fill="url(#paint15_linear_1:2360)"/>
<path d="M279.54 96.0532H279.239C279.036 96.0532 278.836 96.0104 278.648 95.9274C278.461 95.8443 278.291 95.7226 278.148 95.5693C278.005 95.4159 277.892 95.234 277.815 95.0338C277.738 94.8337 277.699 94.6194 277.701 94.4032V54.7632C277.685 54.5546 277.717 54.3451 277.793 54.1522C277.869 53.9593 277.987 53.7886 278.138 53.6545C278.289 53.5203 278.467 53.4266 278.659 53.3812C278.85 53.3357 279.05 53.3398 279.239 53.3932L279.54 53.4432C279.99 53.5486 280.391 53.8199 280.673 54.2095C280.954 54.5991 281.098 55.0819 281.078 55.5732V94.4032C281.08 94.6194 281.041 94.8337 280.964 95.0338C280.887 95.234 280.774 95.4159 280.631 95.5693C280.488 95.7226 280.318 95.8443 280.131 95.9274C279.943 96.0104 279.742 96.0532 279.54 96.0532Z" fill="url(#paint16_linear_1:2360)"/>
<path d="M273.366 96.0532H273.075C272.672 96.0352 272.292 95.8527 272.012 95.5436C271.733 95.2345 271.576 94.8225 271.574 94.3932V54.9932C271.587 54.5258 271.74 54.0751 272.01 53.7065C272.28 53.3379 272.653 53.0705 273.075 52.9432H273.366C273.569 52.9291 273.772 52.9605 273.962 53.0352C274.153 53.11 274.327 53.2265 274.473 53.3772C274.619 53.5279 274.733 53.7096 274.809 53.9104C274.885 54.1112 274.921 54.3268 274.914 54.5432V94.4032C274.914 94.8408 274.751 95.2605 274.46 95.57C274.17 95.8794 273.776 96.0532 273.366 96.0532Z" fill="url(#paint17_linear_1:2360)"/>
<path d="M267.192 96.0531H266.883C266.489 96.0541 266.11 95.8954 265.823 95.6094C265.535 95.3233 265.361 94.9314 265.334 94.5131V59.5931C265.472 58.3854 266.024 57.2745 266.883 56.4731L267.173 56.2131C268.027 55.4631 268.722 55.6931 268.722 56.6031V94.4231C268.712 94.8522 268.548 95.261 268.263 95.5645C267.978 95.868 267.595 96.043 267.192 96.0531Z" fill="url(#paint18_linear_1:2360)"/>
<path d="M261.028 96.0533H260.728C260.364 96.0664 260.008 95.939 259.725 95.6947C259.442 95.4503 259.252 95.1054 259.189 94.7233V66.2733C259.348 65.0143 259.888 63.845 260.728 62.9433L261.028 62.6233C261.882 61.6733 262.567 61.6233 262.567 62.5533V94.6033C262.527 95.0063 262.347 95.3788 262.062 95.6472C261.777 95.9156 261.408 96.0605 261.028 96.0533Z" fill="url(#paint19_linear_1:2360)"/>
<path d="M254.855 96.0533H254.554C253.71 96.0533 253.016 95.3433 253.016 94.8833V71.6533C253.073 71.1098 253.24 70.5861 253.506 70.1182C253.771 69.6503 254.129 69.2494 254.554 68.9433L254.855 68.7133C255.708 68.0433 256.393 68.1233 256.393 69.0333V94.8133C256.313 95.1787 256.115 95.5027 255.834 95.7291C255.553 95.9556 255.206 96.0702 254.855 96.0533Z" fill="url(#paint20_linear_1:2360)"/>
<path d="M248.681 96.0532H248.39C247.536 96.0532 246.842 95.3332 246.842 94.8932V72.7632C246.841 72.5513 246.882 72.3417 246.961 72.1473C247.04 71.9529 247.155 71.778 247.301 71.6334C247.446 71.4889 247.618 71.3778 247.805 71.3073C247.993 71.2367 248.192 71.208 248.39 71.2232H248.681C248.878 71.2124 249.075 71.2441 249.261 71.3163C249.447 71.3884 249.617 71.4997 249.761 71.6434C249.906 71.787 250.021 71.9602 250.102 72.1526C250.182 72.345 250.225 72.5526 250.229 72.7632V94.9432C250.229 95.3232 249.535 96.0532 248.681 96.0532Z" fill="url(#paint21_linear_1:2360)"/>
<path d="M242.489 96.0533H242.188C241.832 96.0689 241.483 95.95 241.201 95.7176C240.92 95.4852 240.724 95.1543 240.65 94.7833V71.6133C240.641 71.4103 240.679 71.2081 240.759 71.0237C240.839 70.8393 240.96 70.6781 241.11 70.5537C241.261 70.4293 241.438 70.3452 241.625 70.3086C241.813 70.272 242.006 70.2839 242.188 70.3433L242.489 70.4133C242.917 70.5174 243.301 70.7705 243.579 71.1326C243.858 71.4947 244.015 71.9452 244.027 72.4133V94.8633C244.055 95.3433 243.361 96.0533 242.489 96.0533Z" fill="url(#paint22_linear_1:2360)"/>
<path d="M236.343 96.0532H236.043C235.657 96.0572 235.285 95.906 234.999 95.6297C234.714 95.3534 234.537 94.9725 234.504 94.5632V69.9432C234.494 69.7414 234.531 69.5401 234.612 69.3574C234.693 69.1747 234.815 69.0162 234.968 68.8962C235.12 68.7763 235.298 68.6986 235.486 68.6701C235.674 68.6417 235.865 68.6633 236.043 68.7332L236.343 68.8232C236.771 68.9559 237.149 69.2277 237.425 69.6006C237.701 69.9735 237.86 70.4289 237.882 70.9032V94.6832C237.827 95.0726 237.64 95.427 237.356 95.6795C237.073 95.9319 236.712 96.0649 236.343 96.0532Z" fill="url(#paint23_linear_1:2360)"/>
<path d="M230.17 96.0531H229.869C229.462 96.0454 229.073 95.8687 228.786 95.5607C228.499 95.2526 228.335 94.8374 228.331 94.4031V68.4731C228.323 68.2671 228.36 68.062 228.438 67.8737C228.517 67.6854 228.635 67.519 228.784 67.3874C228.933 67.2558 229.109 67.1626 229.297 67.115C229.485 67.0675 229.681 67.0668 229.869 67.1131L230.17 67.1731C230.599 67.2769 230.984 67.5296 231.264 67.8915C231.544 68.2534 231.704 68.7042 231.718 69.1731V94.4831C231.696 94.9059 231.524 95.3039 231.236 95.5957C230.948 95.8876 230.567 96.0512 230.17 96.0531Z" fill="url(#paint24_linear_1:2360)"/>
<path d="M223.995 96.0531H223.723C223.313 96.0531 222.919 95.8793 222.629 95.5699C222.338 95.2604 222.175 94.8407 222.175 94.4031V67.6231C222.175 66.6231 222.87 66.3631 223.723 66.4531H224.014C224.427 66.4685 224.818 66.6528 225.106 66.9675C225.394 67.2822 225.558 67.7033 225.562 68.1431V94.3931C225.56 94.8343 225.394 95.2565 225.1 95.5675C224.807 95.8786 224.409 96.0531 223.995 96.0531Z" fill="url(#paint25_linear_1:2360)"/>
<path d="M217.831 96.0532H217.531C217.328 96.0532 217.127 96.0105 216.94 95.9274C216.753 95.8444 216.583 95.7227 216.44 95.5693C216.297 95.416 216.183 95.234 216.107 95.0339C216.03 94.8338 215.991 94.6194 215.992 94.4032V63.0132C215.992 61.3732 216.677 61.6532 217.531 62.5432L217.831 62.8532C218.273 63.2438 218.636 63.7246 218.9 64.2673C219.165 64.8101 219.324 65.4037 219.37 66.0132V94.4032C219.371 94.6194 219.332 94.8338 219.255 95.0339C219.179 95.234 219.066 95.416 218.923 95.5693C218.78 95.7227 218.609 95.8444 218.422 95.9274C218.235 96.0105 218.034 96.0532 217.831 96.0532Z" fill="url(#paint26_linear_1:2360)"/>
<path d="M211.658 96.0531H211.358C210.949 96.0505 210.557 95.8755 210.269 95.5663C209.981 95.2572 209.819 94.839 209.819 94.4031V56.2231C209.819 53.5631 210.513 53.6731 211.358 54.8131L211.658 55.2131C212.675 56.58 213.218 58.2789 213.197 60.0231V94.4031C213.198 94.6194 213.159 94.8337 213.082 95.0338C213.005 95.2339 212.892 95.4159 212.749 95.5693C212.606 95.7226 212.436 95.8443 212.249 95.9274C212.062 96.0104 211.861 96.0532 211.658 96.0531Z" fill="url(#paint27_linear_1:2360)"/>
<path d="M205.484 96.0532H205.193C204.783 96.0532 204.389 95.8794 204.098 95.5699C203.808 95.2605 203.645 94.8408 203.645 94.4032V50.4032C203.645 46.8932 204.339 46.4932 205.193 47.3232L205.484 47.6132C206.338 48.4732 207.032 50.1832 207.032 53.2732V94.4032C207.032 94.8408 206.869 95.2605 206.579 95.5699C206.288 95.8794 205.895 96.0532 205.484 96.0532Z" fill="url(#paint28_linear_1:2360)"/>
<path d="M199.329 96.0533H199.038C198.832 96.0587 198.626 96.0199 198.434 95.9394C198.242 95.8589 198.067 95.7382 197.919 95.5844C197.771 95.4307 197.654 95.247 197.574 95.0441C197.494 94.8413 197.453 94.6234 197.453 94.4033C197.453 79.23 197.453 64.0567 197.453 48.8833C197.453 45.1533 198.138 44.1933 198.991 44.1633H199.329C200.183 44.1633 200.877 45.2533 200.877 48.9733V94.4033C200.877 94.8409 200.714 95.2606 200.424 95.5701C200.133 95.8795 199.74 96.0533 199.329 96.0533Z" fill="url(#paint29_linear_1:2360)"/>
<path d="M193.147 96.0532H192.846C192.644 96.0532 192.443 96.0105 192.255 95.9274C192.068 95.8444 191.898 95.7227 191.755 95.5693C191.612 95.416 191.499 95.234 191.422 95.0339C191.345 94.8338 191.306 94.6194 191.308 94.4032C191.308 80.1565 191.336 65.9032 191.392 51.6432C191.392 48.3132 192.077 46.9832 192.912 46.4432L193.203 46.2532C194.038 45.7232 194.723 46.2532 194.723 49.8232C194.723 64.6832 194.723 79.5432 194.723 94.4032C194.724 94.6228 194.684 94.8405 194.605 95.0433C194.526 95.2461 194.409 95.4299 194.262 95.5838C194.115 95.7376 193.941 95.8585 193.749 95.9391C193.558 96.0198 193.353 96.0586 193.147 96.0532Z" fill="url(#paint30_linear_1:2360)"/>
<path d="M186.973 96.0531H186.673C186.264 96.0505 185.872 95.8755 185.584 95.5663C185.296 95.2572 185.134 94.839 185.134 94.4031C185.134 81.5431 185.199 68.6831 185.331 55.8231C185.331 53.1231 186.044 51.8831 186.87 51.1731L187.132 50.9431C187.967 50.2431 188.643 50.4431 188.624 53.4931C188.543 67.1331 188.499 80.7764 188.493 94.4231C188.488 94.8521 188.326 95.2622 188.043 95.5665C187.759 95.8708 187.375 96.0453 186.973 96.0531Z" fill="url(#paint31_linear_1:2360)"/>
<path d="M180.799 96.0533H180.508C180.097 96.0533 179.704 95.8795 179.413 95.57C179.123 95.2606 178.96 94.8409 178.96 94.4033C178.96 82.7433 179.063 71.1333 179.26 59.4633C179.26 57.3033 179.992 56.3733 180.827 55.8433L181.118 55.6633C181.962 55.1133 182.628 55.2233 182.6 57.6633C182.425 69.9233 182.341 82.1733 182.347 94.4133C182.345 94.8492 182.18 95.2663 181.89 95.5736C181.6 95.8809 181.208 96.0533 180.799 96.0533Z" fill="url(#paint32_linear_1:2360)"/>
<path d="M174.635 96.0531H174.335C174.132 96.0531 173.931 96.0104 173.744 95.9273C173.556 95.8443 173.386 95.7226 173.243 95.5692C173.1 95.4159 172.987 95.2339 172.91 95.0338C172.834 94.8337 172.795 94.6193 172.796 94.4031C172.796 83.1631 172.899 72.0031 173.124 60.7631C173.171 58.7631 173.866 57.9431 174.719 57.9431H175.02C175.864 57.9431 176.549 58.3831 176.502 60.4131C176.277 71.7731 176.174 83.0531 176.174 94.4131C176.171 94.8473 176.008 95.2629 175.72 95.5699C175.432 95.8769 175.042 96.0505 174.635 96.0531Z" fill="url(#paint33_linear_1:2360)"/>
<path d="M168.461 96.0532H168.161C167.958 96.0532 167.757 96.0105 167.57 95.9275C167.383 95.8444 167.212 95.7227 167.069 95.5694C166.926 95.416 166.813 95.234 166.737 95.0339C166.66 94.8338 166.621 94.6194 166.622 94.4032C166.622 83.5732 166.707 72.7932 166.904 61.9532C166.95 60.1432 167.645 59.1332 168.508 58.9032L168.808 58.8232C169.671 58.5932 170.366 59.2332 170.319 61.1632C170.103 72.2632 170 83.3032 170 94.4032C170.001 94.6194 169.962 94.8338 169.885 95.0339C169.809 95.234 169.695 95.416 169.552 95.5694C169.409 95.7227 169.239 95.8444 169.052 95.9275C168.865 96.0105 168.664 96.0532 168.461 96.0532Z" fill="url(#paint34_linear_1:2360)"/>
<path d="M162.288 96.0531H161.997C161.794 96.0531 161.592 96.0104 161.404 95.9275C161.217 95.8446 161.046 95.7231 160.902 95.5698C160.758 95.4166 160.644 95.2347 160.567 95.0345C160.489 94.8344 160.449 94.6198 160.449 94.4031C160.449 84.1931 160.505 74.0231 160.665 63.8131C160.62 63.2242 160.75 62.6352 161.036 62.1292C161.322 61.6232 161.75 61.2258 162.26 60.9931L162.56 60.8831C163.423 60.5731 164.117 61.0731 164.089 62.7631C163.901 73.3231 163.836 83.8431 163.836 94.4031C163.836 94.8407 163.673 95.2604 163.382 95.5698C163.092 95.8793 162.698 96.0531 162.288 96.0531Z" fill="url(#paint35_linear_1:2360)"/>
<path d="M156.114 96.0532H155.823C155.415 96.0479 155.027 95.8717 154.74 95.5629C154.454 95.254 154.293 94.8373 154.293 94.4032C154.293 84.7532 154.293 75.1132 154.444 65.4632C154.416 64.9375 154.557 64.4176 154.844 63.9887C155.13 63.5599 155.545 63.2476 156.02 63.1032L156.32 63.0132C157.183 62.7732 157.887 63.2232 157.859 64.6332C157.718 74.5632 157.681 84.4732 157.681 94.4032C157.681 94.6215 157.64 94.8377 157.561 95.0392C157.482 95.2407 157.366 95.4235 157.22 95.577C157.075 95.7305 156.902 95.8516 156.712 95.9333C156.522 96.0151 156.319 96.0558 156.114 96.0532Z" fill="url(#paint36_linear_1:2360)"/>
<path d="M149.95 96.0532H149.65C149.447 96.0532 149.246 96.0104 149.059 95.9274C148.871 95.8444 148.701 95.7227 148.558 95.5693C148.415 95.416 148.302 95.234 148.225 95.0339C148.149 94.8337 148.11 94.6194 148.111 94.4032C148.111 84.9532 148.111 75.5032 148.223 66.0432C148.2 65.8048 148.223 65.5639 148.29 65.3352C148.357 65.1064 148.468 64.8948 148.614 64.7131C148.761 64.5315 148.941 64.3837 149.143 64.2788C149.346 64.1739 149.566 64.1142 149.79 64.1032H150.091C150.311 64.0925 150.532 64.1346 150.735 64.2264C150.939 64.3182 151.121 64.4574 151.268 64.6339C151.414 64.8103 151.522 65.0194 151.583 65.246C151.644 65.4725 151.656 65.7108 151.62 65.9432C151.507 75.4432 151.489 84.9432 151.489 94.4332C151.484 94.8647 151.319 95.2767 151.031 95.5799C150.743 95.8832 150.355 96.0532 149.95 96.0532Z" fill="url(#paint37_linear_1:2360)"/>
<path d="M143.776 96.0533H143.476C143.067 96.0506 142.675 95.8756 142.387 95.5665C142.099 95.2573 141.937 94.8392 141.937 94.4033C141.937 84.9533 141.937 75.5033 142.012 66.0433C141.987 65.8038 142.009 65.5615 142.077 65.3315C142.144 65.1015 142.255 64.8888 142.403 64.7066C142.551 64.5245 142.733 64.3769 142.937 64.2731C143.141 64.1693 143.362 64.1115 143.588 64.1033H143.889C144.113 64.1124 144.332 64.1712 144.534 64.276C144.736 64.3807 144.915 64.5291 145.059 64.7116C145.204 64.8941 145.312 65.1068 145.375 65.3361C145.438 65.5654 145.456 65.8062 145.427 66.0433C145.333 75.5033 145.315 84.9533 145.315 94.4033C145.316 94.6195 145.277 94.8338 145.2 95.0339C145.123 95.2341 145.01 95.416 144.867 95.5694C144.724 95.7227 144.554 95.8444 144.367 95.9275C144.18 96.0105 143.979 96.0533 143.776 96.0533Z" fill="url(#paint38_linear_1:2360)"/>
<path d="M137.602 96.0533H137.311C136.901 96.0533 136.507 95.8794 136.217 95.57C135.926 95.2606 135.763 94.8409 135.763 94.4033V66.0433C135.737 65.8043 135.758 65.5622 135.824 65.3323C135.89 65.1023 136 64.8894 136.148 64.7071C136.295 64.5248 136.476 64.377 136.68 64.2731C136.883 64.1692 137.105 64.1113 137.33 64.1033H137.63C137.856 64.1112 138.077 64.169 138.28 64.2731C138.483 64.3771 138.664 64.5251 138.81 64.7076C138.957 64.8901 139.066 65.1031 139.131 65.333C139.196 65.563 139.215 65.8049 139.188 66.0433C139.15 75.5033 139.15 84.9566 139.188 94.4033C139.188 94.6234 139.147 94.8412 139.067 95.0441C138.986 95.2469 138.869 95.4306 138.721 95.5844C138.574 95.7381 138.398 95.8588 138.206 95.9393C138.014 96.0199 137.809 96.0586 137.602 96.0533Z" fill="url(#paint39_linear_1:2360)"/>
<path d="M131.438 96.0533H131.138C130.727 96.0533 130.333 95.8794 130.043 95.57C129.753 95.2606 129.59 94.8409 129.59 94.4033C129.59 84.9499 129.571 75.4966 129.533 66.0433C129.504 65.8054 129.523 65.5638 129.586 65.3338C129.65 65.1039 129.759 64.8907 129.905 64.708C130.05 64.5253 130.23 64.3772 130.433 64.273C130.636 64.1689 130.857 64.111 131.081 64.1033H131.372C131.598 64.1115 131.82 64.1693 132.024 64.2731C132.228 64.3769 132.41 64.5245 132.558 64.7066C132.706 64.8888 132.817 65.1015 132.884 65.3315C132.951 65.5615 132.973 65.8038 132.949 66.0433C132.949 75.5033 132.949 84.9566 132.949 94.4033C132.949 94.834 132.791 95.2478 132.509 95.5561C132.226 95.8644 131.842 96.0428 131.438 96.0533Z" fill="url(#paint40_linear_1:2360)"/>
<path d="M125.264 96.0533H124.964C124.761 96.0533 124.56 96.0105 124.373 95.9275C124.186 95.8444 124.016 95.7227 123.873 95.5694C123.73 95.416 123.617 95.2341 123.54 95.0339C123.463 94.8338 123.424 94.6195 123.425 94.4033C123.425 84.9366 123.394 75.4633 123.332 65.9833C123.301 65.7498 123.317 65.512 123.38 65.2858C123.442 65.0597 123.55 64.8505 123.695 64.6724C123.84 64.4942 124.019 64.3513 124.22 64.2531C124.421 64.1549 124.64 64.1038 124.861 64.1033H125.208C125.433 64.1127 125.653 64.1715 125.856 64.276C126.058 64.3805 126.238 64.5285 126.384 64.7107C126.531 64.8928 126.64 65.1052 126.705 65.3345C126.771 65.5639 126.792 65.8051 126.765 66.0433C126.841 75.5033 126.85 84.9533 126.85 94.4033C126.851 94.6238 126.811 94.8423 126.731 95.0457C126.652 95.2492 126.534 95.4335 126.386 95.5875C126.238 95.7415 126.063 95.8622 125.87 95.9422C125.677 96.0222 125.471 96.06 125.264 96.0533Z" fill="url(#paint41_linear_1:2360)"/>
<path d="M119.091 96.0533H118.791C118.382 96.0507 117.99 95.8757 117.702 95.5665C117.414 95.2574 117.252 94.8392 117.252 94.4033C117.252 84.5367 117.252 74.6667 117.252 64.7933C117.252 63.4133 117.927 63.0333 118.772 63.2633L119.063 63.3433C119.527 63.4686 119.935 63.7633 120.216 64.1763C120.497 64.5892 120.634 65.0942 120.601 65.6033C120.658 75.2033 120.683 84.8033 120.677 94.4033C120.677 94.6234 120.635 94.8413 120.555 95.0441C120.475 95.247 120.358 95.4307 120.21 95.5844C120.062 95.7382 119.887 95.8589 119.695 95.9394C119.503 96.0199 119.297 96.0587 119.091 96.0533Z" fill="url(#paint42_linear_1:2360)"/>
<path d="M112.917 96.0533H112.626C112.216 96.0533 111.822 95.8794 111.532 95.57C111.241 95.2606 111.078 94.8409 111.078 94.4033C111.078 83.8233 111.078 73.2466 111.078 62.6733C111.078 60.9833 111.772 60.6733 112.617 61.0333L112.908 61.1533C113.41 61.3836 113.83 61.7779 114.108 62.2793C114.387 62.7808 114.508 63.3634 114.456 63.9433C114.456 74.1166 114.456 84.2799 114.456 94.4333C114.448 94.8639 114.283 95.2745 113.996 95.5772C113.708 95.8799 113.321 96.0507 112.917 96.0533Z" fill="url(#paint43_linear_1:2360)"/>
<path d="M106.753 96.0533H106.444C106.241 96.0533 106.04 96.0106 105.853 95.9275C105.665 95.8445 105.495 95.7228 105.352 95.5695C105.209 95.4161 105.096 95.2341 105.019 95.034C104.942 94.8339 104.904 94.6195 104.905 94.4033C104.905 83.0233 104.905 71.64 104.905 60.2533C104.905 58.2533 105.618 57.8133 106.472 58.2533L106.763 58.3933C107.616 58.7833 108.292 59.7733 108.282 61.6333C108.282 72.5733 108.282 83.5133 108.282 94.4533C108.27 94.8788 108.105 95.2828 107.82 95.581C107.535 95.8791 107.152 96.0484 106.753 96.0533Z" fill="url(#paint44_linear_1:2360)"/>
<path d="M100.579 96.0531H100.279C99.87 96.0505 99.4786 95.8755 99.1903 95.5663C98.902 95.2572 98.7402 94.839 98.7402 94.4031C98.7402 82.3231 98.7402 70.2431 98.7402 58.1631C98.7402 55.8031 99.397 55.3131 100.27 55.6131L100.57 55.7231C101.442 56.0331 102.137 57.0331 102.127 59.2331C102.127 70.9665 102.127 82.6898 102.127 94.4031C102.129 94.6202 102.089 94.8353 102.012 95.0361C101.935 95.2369 101.821 95.4193 101.677 95.5728C101.533 95.7263 101.361 95.8478 101.173 95.9302C100.985 96.0127 100.783 96.0545 100.579 96.0531Z" fill="url(#paint45_linear_1:2360)"/>
<path d="M94.4058 96.0531H94.115C93.7044 96.0531 93.3106 95.8793 93.0203 95.5699C92.73 95.2604 92.5669 94.8407 92.5669 94.4031C92.5669 81.4898 92.5888 68.5765 92.6326 55.6631C92.6326 52.9431 93.3644 52.5731 94.2182 53.0131L94.5184 53.1731C95.3629 53.6031 96.0384 54.6431 96.0196 57.1731C95.9696 69.5931 95.9477 82.0131 95.9539 94.4331C95.9466 94.8655 95.7802 95.2775 95.4907 95.5805C95.2012 95.8835 94.8116 96.0532 94.4058 96.0531Z" fill="url(#paint46_linear_1:2360)"/>
<path d="M88.2323 96.0532H87.9414C87.5308 96.0532 87.1371 95.8793 86.8467 95.5699C86.5564 95.2605 86.3933 94.8408 86.3933 94.4032C86.3933 80.5165 86.3714 66.6265 86.3276 52.7332C86.3276 49.5732 87.0501 49.1132 87.932 49.5932L88.2323 49.7632C89.1142 50.2432 89.7991 51.4132 89.7991 54.3432C89.7991 67.6765 89.7991 81.0298 89.7991 94.4032C89.7991 94.6215 89.7585 94.8377 89.6795 95.0392C89.6005 95.2408 89.4848 95.4235 89.3391 95.577C89.1933 95.7305 89.0205 95.8516 88.8305 95.9334C88.6405 96.0151 88.4371 96.0558 88.2323 96.0532Z" fill="url(#paint47_linear_1:2360)"/>
<path d="M82.0494 96.0532H81.7679C81.565 96.0532 81.3642 96.0105 81.1769 95.9274C80.9896 95.8444 80.8195 95.7227 80.6765 95.5694C80.5335 95.416 80.4204 95.234 80.3436 95.0339C80.2668 94.8338 80.228 94.6194 80.2292 94.4032C80.2292 79.6899 80.151 64.9866 79.9946 50.2932C79.9946 46.7732 80.6702 46.1632 81.5521 46.5032L81.8617 46.6332C82.7343 46.9832 83.4474 48.1732 83.4661 51.5132C83.5474 65.8132 83.5944 80.1099 83.6069 94.4032C83.6081 94.6211 83.5686 94.8371 83.4907 95.0386C83.4127 95.24 83.2979 95.4229 83.1529 95.5765C83.0079 95.7301 82.8356 95.8514 82.6462 95.9333C82.4567 96.0151 82.2538 96.0559 82.0494 96.0532Z" fill="url(#paint48_linear_1:2360)"/>
<path d="M75.8942 96.0532H75.5939C75.185 96.0505 74.7936 95.8755 74.5053 95.5664C74.217 95.2572 74.0552 94.8391 74.0552 94.4032C74.0552 79.3432 73.9239 64.3132 73.7456 49.2432C73.7456 45.5832 74.393 44.8932 75.2468 44.9532H75.547C76.4102 45.0232 77.1139 45.9532 77.1514 49.5832C77.3203 64.5832 77.4423 79.4432 77.4423 94.3832C77.4448 94.6015 77.4066 94.8182 77.3299 95.0207C77.2532 95.2233 77.1395 95.4075 76.9955 95.5629C76.8515 95.7182 76.68 95.8415 76.491 95.9257C76.3019 96.0099 76.0991 96.0532 75.8942 96.0532Z" fill="url(#paint49_linear_1:2360)"/>
<path d="M69.7208 96.0533H69.4299C69.0193 96.0533 68.6256 95.8795 68.3352 95.57C68.0449 95.2606 67.8818 94.8409 67.8818 94.4033C67.8818 78.7333 67.7411 63.1033 67.5347 47.4033C67.5347 43.4833 68.1914 43.2433 69.0452 43.6233L69.3455 43.7533C70.2087 44.1133 70.903 44.9433 70.9499 48.6733C71.1281 63.9233 71.2689 79.1433 71.2689 94.3833C71.2714 94.6017 71.2331 94.8184 71.1565 95.0209C71.0798 95.2234 70.9661 95.4077 70.8221 95.563C70.6781 95.7183 70.5066 95.8417 70.3176 95.9258C70.1285 96.01 69.9257 96.0533 69.7208 96.0533Z" fill="url(#paint50_linear_1:2360)"/>
<path d="M63.5566 96.0533H63.2845C63.0817 96.0533 62.8808 96.0106 62.6935 95.9275C62.5062 95.8445 62.3361 95.7228 62.1931 95.5695C62.0501 95.4161 61.937 95.2341 61.8602 95.034C61.7834 94.8339 61.7446 94.6195 61.7458 94.4033C61.7458 77.6533 61.5581 60.9533 61.3236 44.1833C61.2579 39.7833 61.9616 39.5233 62.8248 40.0833L63.125 40.2733C63.9976 40.8333 64.6919 41.9133 64.7482 46.0433C64.964 62.1833 65.1235 78.2733 65.1235 94.4033C65.1235 94.6217 65.0828 94.8379 65.0039 95.0394C64.9249 95.2409 64.8092 95.4237 64.6634 95.5772C64.5177 95.7307 64.3448 95.8518 64.1548 95.9335C63.9648 96.0153 63.7615 96.056 63.5566 96.0533Z" fill="url(#paint51_linear_1:2360)"/>
<path d="M57.3826 96.0532H57.0824C56.8795 96.0532 56.6787 96.0104 56.4914 95.9274C56.3041 95.8444 56.134 95.7227 55.991 95.5693C55.848 95.416 55.7349 95.234 55.6581 95.0339C55.5813 94.8337 55.5424 94.6194 55.5437 94.4032C55.5437 76.6132 55.3185 58.8932 55.0558 41.0832C54.9807 36.2232 55.6844 35.7332 56.5382 36.2032L56.8385 36.3632C57.7016 36.8432 58.4053 38.0432 58.471 42.6732C58.7243 59.9532 58.9213 77.1432 58.9213 94.4032C58.9226 94.6194 58.8837 94.8337 58.8069 95.0339C58.7301 95.234 58.617 95.416 58.474 95.5693C58.331 95.7227 58.1609 95.8444 57.9736 95.9274C57.7863 96.0104 57.5855 96.0532 57.3826 96.0532Z" fill="url(#paint52_linear_1:2360)"/>
<path d="M51.2093 96.0532H50.9184C50.5078 96.0532 50.1141 95.8794 49.8237 95.5699C49.5334 95.2605 49.3703 94.8408 49.3703 94.4032C49.3703 76.1632 49.1357 58.0032 48.8543 39.7332C48.7792 34.6832 49.4641 33.9432 50.3273 34.0032H50.6182C51.472 34.1232 52.1756 35.1132 52.2413 40.1132C52.5228 58.2332 52.7573 76.2632 52.7573 94.3632C52.7624 94.5832 52.726 94.8021 52.6505 95.0069C52.5749 95.2118 52.4617 95.3984 52.3174 95.5559C52.1732 95.7134 52.0008 95.8385 51.8105 95.9239C51.6202 96.0093 51.4157 96.0533 51.2093 96.0532Z" fill="url(#paint53_linear_1:2360)"/>
<path d="M45.0355 96.0533H44.7446C44.334 96.0533 43.9403 95.8795 43.65 95.57C43.3596 95.2606 43.1965 94.8409 43.1965 94.4033C43.1965 76.8733 43.0089 59.4033 42.7743 41.8433C42.718 37.0833 43.3842 35.8433 44.2098 35.3733L44.5194 35.2233C45.3545 34.8033 46.0394 35.3733 46.1145 40.3433C46.3772 58.4033 46.6023 76.3433 46.6023 94.4033C46.6024 94.6217 46.5617 94.8379 46.4827 95.0394C46.4038 95.2409 46.288 95.4237 46.1423 95.5771C45.9966 95.7306 45.8237 95.8517 45.6337 95.9335C45.4437 96.0152 45.2404 96.0559 45.0355 96.0533Z" fill="url(#paint54_linear_1:2360)"/>
<path d="M38.8901 96.0531H38.5898C38.3838 96.0585 38.1789 96.0197 37.9873 95.939C37.7956 95.8584 37.6211 95.7375 37.4741 95.5836C37.3271 95.4298 37.2105 95.246 37.1314 95.0432C37.0523 94.8404 37.0123 94.6227 37.0136 94.4031C37.0136 78.1731 36.901 61.9631 36.7603 45.7231C36.7603 41.5531 37.3889 40.2931 38.2145 39.6231L38.496 39.3831C39.3217 38.7131 39.9972 38.9831 40.0441 43.4931C40.2411 60.4931 40.3912 77.4231 40.3912 94.4031C40.3938 94.8329 40.238 95.2467 39.9572 95.5553C39.6765 95.8639 39.2932 96.0426 38.8901 96.0531Z" fill="url(#paint55_linear_1:2360)"/>
<path d="M32.6978 96.0532H32.3976C31.9886 96.0506 31.5973 95.8756 31.309 95.5664C31.0207 95.2573 30.8588 94.8391 30.8589 94.4032C30.8589 79.4432 30.8307 64.4799 30.7744 49.5132C30.7744 45.9032 31.4499 44.9132 32.2756 44.3432L32.5571 44.1432C33.3827 43.5532 34.0489 43.6632 34.077 47.5632C34.1583 63.1832 34.199 78.7966 34.199 94.4032C34.2016 94.8331 34.0457 95.2468 33.765 95.5554C33.4842 95.864 33.101 96.0428 32.6978 96.0532Z" fill="url(#paint56_linear_1:2360)"/>
<path d="M26.524 96.0532H26.2332C25.8226 96.0532 25.4288 95.8793 25.1385 95.5699C24.8482 95.2605 24.6851 94.8408 24.6851 94.4032V51.3232C24.6851 47.9532 25.3794 47.2532 26.2238 47.1132L26.524 47.0632C27.3684 46.8932 28.0346 47.2432 28.044 50.6832C28.044 65.2565 28.044 79.8298 28.044 94.4032C28.044 94.8356 27.8848 95.2508 27.6005 95.5594C27.3163 95.868 26.9297 96.0453 26.524 96.0532Z" fill="url(#paint57_linear_1:2360)"/>
<path d="M20.3601 96.0532H20.0598C19.6492 96.0532 19.2555 95.8793 18.9651 95.5699C18.6748 95.2605 18.5117 94.8408 18.5117 94.4032V54.2332C18.5117 51.2332 19.206 49.7532 20.0598 49.1332L20.3601 48.9132C21.2045 48.3232 21.8988 48.9132 21.8988 52.1232V94.4032C21.8988 94.8391 21.737 95.2572 21.4487 95.5664C21.1604 95.8755 20.769 96.0505 20.3601 96.0532Z" fill="url(#paint58_linear_1:2360)"/>
<path d="M14.1861 96.0532H13.8858C13.683 96.0532 13.4821 96.0105 13.2948 95.9274C13.1075 95.8444 12.9375 95.7227 12.7944 95.5693C12.6514 95.416 12.5383 95.234 12.4615 95.0339C12.3847 94.8338 12.3459 94.6194 12.3471 94.4032V59.8232C12.2844 58.1298 12.8354 56.4755 13.8858 55.2032L14.1861 54.8632C15.0398 53.8632 15.7248 53.9832 15.7248 56.5832V94.4032C15.726 94.6194 15.6871 94.8338 15.6103 95.0339C15.5336 95.234 15.4204 95.416 15.2774 95.5693C15.1344 95.7227 14.9644 95.8444 14.7771 95.9274C14.5898 96.0105 14.3889 96.0532 14.1861 96.0532Z" fill="url(#paint59_linear_1:2360)"/>
<path d="M8.01278 96.0532H7.71254C7.30359 96.0506 6.91223 95.8755 6.62393 95.5664C6.33563 95.2572 6.17382 94.8391 6.17383 94.4032V65.4032C6.20776 64.7737 6.36171 64.1582 6.62626 63.5943C6.89082 63.0304 7.26043 62.5298 7.71254 62.1232L8.01278 61.8232C8.86658 60.9632 9.56088 60.8232 9.56088 62.5332V94.4032C9.56088 94.8408 9.39777 95.2605 9.10745 95.5699C8.81713 95.8794 8.42336 96.0532 8.01278 96.0532Z" fill="url(#paint60_linear_1:2360)"/>
<path d="M1.83895 96.0531H1.5481C1.13752 96.0531 0.743752 95.8793 0.453427 95.5698C0.163103 95.2604 0 94.8407 0 94.4031V68.1231C0.023225 67.6724 0.188839 67.2432 0.46991 66.9055C0.750981 66.5678 1.13098 66.3414 1.5481 66.2631L1.83895 66.1831C2.69275 65.9131 3.38705 66.0831 3.38705 67.1231V94.4031C3.38705 94.8407 3.22395 95.2604 2.93362 95.5698C2.6433 95.8793 2.24953 96.0531 1.83895 96.0531Z" fill="url(#paint61_linear_1:2360)"/>
<path d="M1.50119 99.002H1.83895C2.14775 99.0027 2.45123 99.0877 2.72054 99.2487C2.98986 99.4097 3.21607 99.6415 3.37767 99.922V101.342C3.20598 101.6 2.97293 101.804 2.70249 101.934C2.43205 102.064 2.13398 102.115 1.83895 102.082H1.53871C1.22724 102.053 0.926264 101.948 0.659326 101.774C0.392387 101.601 0.166727 101.364 0 101.082V99.922C0.162499 99.6514 0.383765 99.4265 0.64507 99.2664C0.906376 99.1062 1.20003 99.0155 1.50119 99.002Z" fill="#BDBBD1"/>
<path d="M7.67495 99.002H7.97518C8.28523 99.0019 8.59 99.0875 8.8597 99.2505C9.12941 99.4135 9.35481 99.6483 9.5139 99.932V102.702C9.33359 102.94 9.09067 103.114 8.81642 103.203C8.54218 103.292 8.24918 103.292 7.97518 103.202L7.67495 103.122C7.35216 103.03 7.04983 102.87 6.78563 102.652C6.52144 102.434 6.30067 102.162 6.13623 101.852V99.932C6.29531 99.6483 6.52072 99.4135 6.79042 99.2505C7.06013 99.0875 7.3649 99.0019 7.67495 99.002Z" fill="#BDBBD1"/>
<path d="M13.8484 99.002H14.1392C14.4529 99.0012 14.7612 99.0886 15.033 99.2554C15.3048 99.4222 15.5305 99.6624 15.6873 99.952V104.472C15.5092 104.715 15.2638 104.892 14.986 104.978C14.7081 105.064 14.4119 105.055 14.1392 104.952L13.8484 104.872C13.1852 104.647 12.6301 104.155 12.3003 103.502V99.942C12.4597 99.6557 12.6863 99.4185 12.9577 99.2537C13.2291 99.0889 13.536 99.0021 13.8484 99.002Z" fill="#BDBBD1"/>
<path d="M20.0222 99.002H20.3131C20.6318 99.004 20.9441 99.0981 21.2167 99.2742C21.4892 99.4502 21.712 99.7017 21.8612 100.002V105.822C21.6923 106.083 21.4562 106.285 21.1815 106.406C20.9068 106.527 20.6052 106.56 20.3131 106.502H20.0222C19.6955 106.426 19.388 106.277 19.1208 106.063C18.8536 105.849 18.633 105.575 18.4741 105.262V99.952C18.6309 99.6624 18.8567 99.4222 19.1285 99.2554C19.4003 99.0886 19.7086 99.0012 20.0222 99.002Z" fill="#BDBBD1"/>
<path d="M26.2331 99.002H26.5333C26.8457 99.0009 27.1528 99.0883 27.4232 99.2552C27.6935 99.4221 27.9174 99.6626 28.072 99.952V105.952C27.9104 106.232 27.6842 106.464 27.4149 106.625C27.1456 106.786 26.8421 106.871 26.5333 106.872H26.2331C25.9255 106.865 25.6242 106.777 25.3559 106.617C25.0876 106.456 24.8604 106.228 24.6943 105.952V99.952C24.8496 99.6632 25.0737 99.4233 25.3439 99.2565C25.6141 99.0897 25.9208 99.0019 26.2331 99.002Z" fill="#BDBBD1"/>
<path d="M32.36 99.002H32.6602C32.9727 99.0009 33.2798 99.0883 33.5501 99.2552C33.8205 99.4221 34.0444 99.6626 34.199 99.952V105.952C34.0374 106.232 33.8112 106.464 33.5418 106.625C33.2725 106.786 32.969 106.871 32.6602 106.872H32.36C32.0512 106.871 31.7477 106.786 31.4784 106.625C31.2091 106.464 30.9829 106.232 30.8213 105.952V99.952C30.9758 99.6626 31.1998 99.4221 31.4701 99.2552C31.7405 99.0883 32.0476 99.0009 32.36 99.002Z" fill="#BDBBD1"/>
<path d="M38.5335 99.002H38.8243C39.1379 99.0012 39.4462 99.0886 39.7181 99.2554C39.9899 99.4222 40.2156 99.6624 40.3724 99.952V105.952C40.2055 106.229 39.9768 106.459 39.7067 106.619C39.4366 106.78 39.1335 106.866 38.8243 106.872H38.5335C38.2243 106.866 37.9211 106.78 37.6511 106.619C37.381 106.459 37.1523 106.229 36.9854 105.952V99.952C37.1422 99.6624 37.3679 99.4222 37.6397 99.2554C37.9115 99.0886 38.2198 99.0012 38.5335 99.002Z" fill="#BDBBD1"/>
<path d="M44.6978 99.0019H44.9981C45.3117 99.0011 45.62 99.0885 45.8918 99.2553C46.1636 99.4221 46.3893 99.6624 46.5462 99.9519V105.952C46.3792 106.229 46.1505 106.459 45.8805 106.619C45.6104 106.78 45.3073 106.866 44.9981 106.872H44.6978C44.3856 106.874 44.0779 106.792 43.8027 106.635C43.5274 106.478 43.2933 106.25 43.1216 105.972V99.9719C43.2776 99.6735 43.5065 99.4257 43.784 99.2549C44.0616 99.0841 44.3774 98.9967 44.6978 99.0019Z" fill="#BDBBD1"/>
<path d="M50.8717 99.002H51.172C51.4844 99.0009 51.7915 99.0883 52.0619 99.2552C52.3322 99.4221 52.5561 99.6626 52.7107 99.952V106.062C52.548 106.336 52.3197 106.56 52.0493 106.709C51.7789 106.858 51.4761 106.928 51.172 106.912H50.8717C50.5624 106.903 50.2601 106.812 49.9916 106.648C49.7231 106.484 49.4969 106.252 49.333 105.972V99.972C49.4851 99.6788 49.708 99.4343 49.9785 99.2638C50.2491 99.0933 50.5574 99.0029 50.8717 99.002Z" fill="#BDBBD1"/>
<path d="M57.0452 99.002H57.3454C57.6577 99.0019 57.9644 99.0897 58.2346 99.2566C58.5048 99.4234 58.7288 99.6633 58.8841 99.952V106.562C58.8841 106.822 58.1898 107.462 57.3454 107.372H57.0452C56.7205 107.331 56.41 107.207 56.1403 107.011C55.8707 106.814 55.6499 106.55 55.4971 106.242V99.942C55.6551 99.6543 55.8813 99.4161 56.153 99.2511C56.4248 99.0861 56.7324 99.0002 57.0452 99.002Z" fill="#BDBBD1"/>
<path d="M63.2185 99.002H63.5094C63.823 99.0012 64.1313 99.0886 64.4031 99.2554C64.6749 99.4222 64.9006 99.6624 65.0575 99.952V107.242C65.0575 107.602 64.3632 108.242 63.5094 108.162H63.2185C62.8799 108.118 62.5584 107.979 62.2865 107.759C62.0146 107.54 61.802 107.247 61.6704 106.912V100.012C61.8199 99.7113 62.0425 99.4589 62.3148 99.2812C62.5872 99.1036 62.8992 99.0071 63.2185 99.002Z" fill="#BDBBD1"/>
<path d="M69.3922 99.002H69.6925C70.0049 99.0009 70.312 99.0883 70.5824 99.2552C70.8527 99.4221 71.0766 99.6626 71.2312 99.952V107.742C71.1343 108.086 70.9271 108.382 70.6458 108.58C70.3645 108.777 70.0271 108.863 69.6925 108.822H69.3922C69.0438 108.788 68.7123 108.645 68.4389 108.412C68.1655 108.18 67.962 107.867 67.8535 107.512V99.952C68.0088 99.6632 68.2329 99.4233 68.5031 99.2565C68.7733 99.0897 69.08 99.0019 69.3922 99.002Z" fill="#BDBBD1"/>
<path d="M75.5563 99.002H75.8565C76.169 99.0009 76.4761 99.0883 76.7464 99.2552C77.0168 99.4221 77.2407 99.6626 77.3952 99.952V107.892C77.2989 108.243 77.0948 108.548 76.8158 108.761C76.5367 108.973 76.1989 109.079 75.8565 109.062H75.5563C75.2117 109.07 74.8742 108.957 74.596 108.74C74.3178 108.523 74.1145 108.215 74.0176 107.862V99.962C74.1709 99.6707 74.3943 99.4282 74.6648 99.2595C74.9352 99.0908 75.2429 99.0019 75.5563 99.002Z" fill="#BDBBD1"/>
<path d="M81.7302 99.002H82.0211C82.3347 99.0012 82.643 99.0886 82.9148 99.2554C83.1866 99.4222 83.4124 99.6624 83.5692 99.952V108.332C83.5692 108.702 82.8749 109.402 82.0211 109.332H81.7302C81.3797 109.31 81.0438 109.175 80.7672 108.945C80.4906 108.714 80.2865 108.399 80.1821 108.042V99.952C80.339 99.6624 80.5647 99.4222 80.8365 99.2554C81.1083 99.0886 81.4166 99.0012 81.7302 99.002Z" fill="#BDBBD1"/>
<path d="M87.904 99.002H88.1573C88.471 99.0012 88.7793 99.0886 89.0511 99.2554C89.3229 99.4222 89.5486 99.6625 89.7054 99.952V108.952C89.7054 109.232 89.0111 109.952 88.1573 109.832H87.8665C87.5301 109.798 87.2087 109.667 86.9362 109.454C86.6638 109.241 86.4503 108.954 86.3184 108.622V99.952C86.4783 99.6565 86.7099 99.4124 86.9889 99.2452C87.2679 99.078 87.584 98.994 87.904 99.002Z" fill="#BDBBD1"/>
<path d="M94.068 99.002H94.3682C94.6807 99.0009 94.9878 99.0883 95.2581 99.2552C95.5285 99.4221 95.7524 99.6626 95.907 99.952V109.452C95.7488 109.731 95.5214 109.958 95.2499 110.108C94.9784 110.258 94.6733 110.325 94.3682 110.302H94.068C93.7479 110.28 93.4384 110.171 93.169 109.986C92.8996 109.8 92.6794 109.544 92.5293 109.242V99.952C92.6839 99.6626 92.9078 99.4221 93.1781 99.2552C93.4485 99.0883 93.7556 99.0009 94.068 99.002Z" fill="#BDBBD1"/>
<path d="M100.242 99.002H100.542C100.855 98.9999 101.162 99.0868 101.433 99.2538C101.703 99.4209 101.927 99.6619 102.081 99.952V109.952C102.081 110.152 101.386 110.632 100.542 110.532H100.242C99.9344 110.514 99.6353 110.419 99.3682 110.256C99.1011 110.093 98.8734 109.865 98.7031 109.592V99.952C98.8577 99.6626 99.0816 99.4221 99.3519 99.2552C99.6223 99.0883 99.9294 99.0009 100.242 99.002Z" fill="#BDBBD1"/>
<path d="M106.415 99.002H106.706C107.026 98.9961 107.342 99.0869 107.616 99.2638C107.89 99.4408 108.111 99.6967 108.254 100.002V113.092C108.254 113.472 107.56 113.662 106.706 113.092L106.415 112.902C105.729 112.47 105.188 111.819 104.867 111.042V99.962C105.018 99.6664 105.242 99.4206 105.515 99.2513C105.788 99.082 106.1 98.9958 106.415 99.002Z" fill="#BDBBD1"/>
<path d="M112.551 99.0021H112.852C113.183 98.9948 113.509 99.0965 113.784 99.2933C114.059 99.4901 114.271 99.7725 114.39 100.102V117.612C114.39 118.252 113.705 118.482 112.852 117.802L112.551 117.562C111.792 116.947 111.25 116.077 111.013 115.092V100.092C111.138 99.7676 111.351 99.4905 111.626 99.2962C111.9 99.102 112.222 98.9996 112.551 99.0021Z" fill="#BDBBD1"/>
<path d="M118.753 99.0021H119.053C119.394 98.992 119.729 99.1008 120.007 99.312C120.285 99.5231 120.49 99.8251 120.592 100.172V121.242C120.592 122.102 119.907 122.602 119.053 122.132L118.753 121.972C118.337 121.705 117.983 121.342 117.716 120.909C117.45 120.476 117.278 119.985 117.214 119.472V100.142C117.324 99.8025 117.532 99.5089 117.809 99.3039C118.085 99.0989 118.416 98.9932 118.753 99.0021Z" fill="#BDBBD1"/>
<path d="M124.927 99.002H125.227C126.072 99.002 126.766 99.712 126.766 100.162V122.242C126.766 122.453 126.726 122.663 126.648 122.857C126.569 123.051 126.455 123.226 126.311 123.371C126.166 123.516 125.996 123.628 125.81 123.701C125.623 123.773 125.425 123.804 125.227 123.792H124.927C124.51 123.767 124.117 123.572 123.829 123.249C123.542 122.926 123.381 122.498 123.379 122.052V100.172C123.484 99.8251 123.692 99.5237 123.971 99.3129C124.25 99.102 124.585 98.993 124.927 99.002Z" fill="#BDBBD1"/>
<path d="M131.1 99.0021H131.391C131.745 98.9828 132.093 99.0963 132.376 99.3229C132.659 99.5496 132.858 99.8749 132.939 100.242V123.442C132.947 123.645 132.908 123.848 132.827 124.032C132.745 124.216 132.624 124.376 132.472 124.5C132.32 124.623 132.143 124.706 131.955 124.741C131.767 124.777 131.573 124.763 131.391 124.702L131.1 124.642C130.67 124.542 130.283 124.29 130.002 123.927C129.721 123.565 129.563 123.112 129.552 122.642V100.182C129.552 99.7021 130.247 99.0021 131.1 99.0021Z" fill="#BDBBD1"/>
<path d="M137.264 99.002H137.565C137.949 98.9954 138.322 99.1444 138.607 99.4191C138.893 99.6937 139.07 100.074 139.103 100.482V125.162C139.114 125.364 139.078 125.565 138.997 125.748C138.916 125.931 138.793 126.089 138.64 126.208C138.487 126.328 138.309 126.404 138.121 126.431C137.933 126.458 137.742 126.434 137.565 126.362L137.264 126.282C136.844 126.148 136.472 125.881 136.198 125.517C135.923 125.152 135.758 124.708 135.726 124.242V100.362C135.784 99.9753 135.973 99.6245 136.256 99.3745C136.539 99.1244 136.897 98.9921 137.264 99.002Z" fill="#BDBBD1"/>
<path d="M143.438 99.002H143.738C144.145 99.0071 144.534 99.1816 144.821 99.488C145.109 99.7945 145.272 100.209 145.277 100.642V126.572C145.286 126.779 145.251 126.985 145.173 127.175C145.095 127.364 144.976 127.532 144.827 127.665C144.678 127.797 144.502 127.892 144.313 127.94C144.124 127.988 143.928 127.989 143.738 127.942L143.438 127.882C143.011 127.775 142.629 127.521 142.351 127.159C142.073 126.798 141.914 126.349 141.899 125.882V100.572C141.919 100.15 142.089 99.7521 142.375 99.46C142.661 99.168 143.042 99.004 143.438 99.002Z" fill="#BDBBD1"/>
<path d="M149.612 99.002H149.903C150.106 99.0007 150.307 99.0421 150.495 99.1239C150.682 99.2058 150.853 99.3264 150.997 99.4788C151.141 99.6312 151.255 99.8124 151.333 100.012C151.411 100.212 151.451 100.426 151.451 100.642V127.432C151.451 128.432 150.757 128.682 149.903 128.592H149.612C149.2 128.577 148.809 128.392 148.52 128.078C148.232 127.763 148.069 127.342 148.064 126.902V100.662C148.064 100.223 148.227 99.8027 148.517 99.4917C148.807 99.1807 149.201 99.0046 149.612 99.002Z" fill="#BDBBD1"/>
<path d="M155.776 99.002H156.077C156.48 99.0098 156.864 99.1861 157.147 99.4928C157.429 99.7995 157.587 100.212 157.587 100.642V132.042C157.587 133.672 156.893 133.402 156.039 132.502L155.739 132.192C155.3 131.801 154.938 131.321 154.674 130.781C154.41 130.24 154.249 129.649 154.2 129.042V100.642C154.2 100.423 154.241 100.207 154.321 100.005C154.4 99.8033 154.517 99.6207 154.664 99.4679C154.811 99.3151 154.985 99.1951 155.176 99.1151C155.367 99.0351 155.571 98.9966 155.776 99.002Z" fill="#BDBBD1"/>
<path d="M161.95 99.002H162.278C162.481 99.0007 162.681 99.0422 162.869 99.1241C163.056 99.2061 163.226 99.3268 163.369 99.4794C163.512 99.6319 163.626 99.8132 163.702 100.013C163.779 100.212 163.818 100.426 163.817 100.642V138.832C163.817 141.482 163.132 141.382 162.278 140.232L161.978 139.832C160.958 138.467 160.414 136.767 160.439 135.022V100.642C160.437 100.211 160.594 99.7972 160.877 99.49C161.16 99.1827 161.546 99.0073 161.95 99.002Z" fill="#BDBBD1"/>
<path d="M168.123 99.002H168.423C168.832 99.002 169.223 99.1748 169.511 99.4823C169.8 99.7899 169.962 100.207 169.962 100.642V144.642C169.962 148.152 169.268 148.552 168.423 147.722L168.123 147.422C167.269 146.572 166.585 144.852 166.585 141.762V100.642C166.583 100.426 166.622 100.212 166.699 100.013C166.776 99.8132 166.889 99.6319 167.032 99.4794C167.176 99.3268 167.346 99.2061 167.533 99.1241C167.72 99.0422 167.921 99.0007 168.123 99.002Z" fill="#BDBBD1"/>
<path d="M174.297 99.002H174.588C174.791 99.0007 174.992 99.0421 175.18 99.1239C175.367 99.2058 175.538 99.3264 175.682 99.4788C175.826 99.6312 175.94 99.8124 176.018 100.012C176.096 100.212 176.136 100.426 176.136 100.642C176.136 115.822 176.136 130.999 176.136 146.172C176.136 149.892 175.451 150.862 174.597 150.892H174.306C173.453 150.892 172.758 149.812 172.758 146.092V100.642C172.758 100.207 172.92 99.7899 173.209 99.4823C173.498 99.1748 173.889 99.002 174.297 99.002Z" fill="#BDBBD1"/>
<path d="M180.462 99.002H180.762C180.964 99.0006 181.165 99.0421 181.352 99.1241C181.539 99.206 181.709 99.3268 181.853 99.4793C181.996 99.6319 182.109 99.8132 182.186 100.013C182.263 100.212 182.302 100.426 182.3 100.642C182.3 114.902 182.275 129.159 182.225 143.412C182.225 146.732 181.54 148.072 180.696 148.612L180.405 148.802C179.57 149.322 178.885 148.802 178.885 145.222C178.885 130.362 178.885 115.502 178.885 100.642C178.885 100.423 178.926 100.207 179.006 100.005C179.086 99.8033 179.202 99.6207 179.349 99.4679C179.496 99.3151 179.67 99.1951 179.861 99.1151C180.052 99.0351 180.256 98.9966 180.462 99.002Z" fill="#BDBBD1"/>
<path d="M186.672 99.002H186.972C187.175 99.0007 187.375 99.0422 187.563 99.1241C187.75 99.2061 187.92 99.3268 188.063 99.4794C188.206 99.6319 188.319 99.8132 188.396 100.013C188.473 100.212 188.512 100.426 188.511 100.642C188.511 113.509 188.445 126.372 188.314 139.232C188.314 141.932 187.61 143.172 186.775 143.882L186.484 144.122C185.649 144.832 184.974 144.632 184.993 141.582C185.08 127.929 185.127 114.282 185.133 100.642C185.132 100.426 185.171 100.212 185.248 100.013C185.325 99.8132 185.438 99.6319 185.581 99.4794C185.724 99.3268 185.894 99.2061 186.082 99.1241C186.269 99.0422 186.47 99.0007 186.672 99.002Z" fill="#BDBBD1"/>
<path d="M192.809 99.002H193.1C193.302 99.0007 193.503 99.0421 193.691 99.1239C193.879 99.2058 194.05 99.3264 194.194 99.4788C194.338 99.6312 194.452 99.8124 194.53 100.012C194.608 100.212 194.648 100.426 194.648 100.642C194.648 112.312 194.544 123.912 194.347 135.582C194.3 137.742 193.616 138.682 192.781 139.202L192.49 139.392C191.645 139.932 190.979 139.822 191.017 137.392C191.186 125.132 191.267 112.879 191.261 100.632C191.262 100.417 191.303 100.204 191.381 100.005C191.46 99.8067 191.574 99.6266 191.718 99.4752C191.862 99.3239 192.032 99.2042 192.219 99.123C192.406 99.0418 192.607 99.0007 192.809 99.002Z" fill="#BDBBD1"/>
<path d="M198.982 99.002H199.273C199.476 99.0007 199.677 99.0421 199.865 99.1239C200.053 99.2058 200.223 99.3264 200.367 99.4788C200.511 99.6312 200.625 99.8124 200.703 100.012C200.781 100.212 200.821 100.426 200.821 100.642C200.821 111.852 200.709 122.982 200.483 134.192C200.437 136.192 199.742 137.102 198.888 137.112H198.598C197.744 137.112 197.059 136.662 197.106 134.642C197.331 123.282 197.434 112.002 197.434 100.642C197.434 100.426 197.474 100.212 197.552 100.012C197.63 99.8124 197.744 99.6312 197.888 99.4788C198.032 99.3264 198.203 99.2058 198.391 99.1239C198.578 99.0421 198.779 99.0007 198.982 99.002Z" fill="#BDBBD1"/>
<path d="M205.147 99.0021H205.438C205.64 99.0007 205.841 99.0423 206.028 99.1242C206.215 99.2062 206.385 99.3269 206.528 99.4795C206.671 99.632 206.785 99.8133 206.862 100.013C206.939 100.212 206.978 100.426 206.976 100.642C206.976 110.922 206.901 121.132 206.695 131.412C206.725 132.101 206.594 132.787 206.314 133.408C206.034 134.029 205.614 134.567 205.09 134.972L204.79 135.152C203.927 135.662 203.233 135.152 203.28 133.272C203.505 122.372 203.599 111.542 203.599 100.642C203.597 100.425 203.637 100.211 203.714 100.011C203.792 99.8103 203.906 99.6286 204.05 99.4759C204.194 99.3232 204.365 99.2026 204.553 99.1213C204.742 99.0399 204.943 98.9994 205.147 99.0021Z" fill="#BDBBD1"/>
<path d="M211.32 99.002H211.62C212.028 99.002 212.42 99.1748 212.708 99.4823C212.997 99.7899 213.159 100.207 213.159 100.642C213.159 111.162 213.3 112.092 212.952 127.012C212.918 127.646 212.757 128.265 212.483 128.829C212.208 129.392 211.824 129.887 211.357 130.282L211.048 130.532C210.185 131.232 209.49 131.032 209.528 129.532C209.715 119.892 209.781 110.312 209.781 100.672C209.776 100.454 209.812 100.237 209.887 100.034C209.963 99.8305 210.075 99.6456 210.219 99.4899C210.362 99.3341 210.534 99.2107 210.723 99.1268C210.912 99.043 211.115 99.0006 211.32 99.002Z" fill="#BDBBD1"/>
<path d="M217.493 99.002H217.784C217.987 99.0007 218.188 99.0421 218.376 99.1239C218.564 99.2058 218.735 99.3264 218.878 99.4788C219.022 99.6312 219.136 99.8124 219.214 100.012C219.292 100.212 219.332 100.426 219.332 100.642C219.332 111.162 219.426 112.552 219.182 123.122C219.123 123.63 218.952 124.116 218.682 124.54C218.413 124.964 218.054 125.314 217.634 125.562L217.334 125.752C216.471 126.312 215.767 126.162 215.795 125.062C216.095 112.332 215.974 111.162 215.974 100.642C215.973 100.21 216.133 99.7963 216.418 99.4893C216.702 99.1824 217.089 99.0072 217.493 99.002Z" fill="#BDBBD1"/>
<path d="M223.658 99.002H223.958C224.16 99.0007 224.361 99.0422 224.548 99.1241C224.736 99.2061 224.906 99.3268 225.049 99.4794C225.192 99.6319 225.305 99.8132 225.382 100.013C225.459 100.212 225.498 100.426 225.497 100.642C225.497 111.162 225.581 112.642 225.384 121.762C225.35 122.183 225.171 122.576 224.882 122.866C224.593 123.155 224.214 123.321 223.817 123.332H223.517C222.673 123.392 221.969 122.902 221.988 122.082C222.203 112.642 222.119 111.152 222.119 100.632C222.122 100.199 222.285 99.7842 222.573 99.4788C222.861 99.1734 223.251 99.002 223.658 99.002Z" fill="#BDBBD1"/>
<path d="M229.831 99.002H230.132C230.337 98.9953 230.542 99.0328 230.734 99.1123C230.925 99.1918 231.1 99.3117 231.247 99.4648C231.394 99.6179 231.511 99.8011 231.59 100.003C231.669 100.206 231.709 100.423 231.708 100.642C231.708 111.162 231.764 113.102 231.633 121.112C231.579 121.539 231.398 121.936 231.115 122.244C230.833 122.552 230.465 122.755 230.066 122.822H229.766C229.581 122.858 229.392 122.851 229.21 122.802C229.028 122.753 228.859 122.663 228.713 122.538C228.567 122.412 228.448 122.255 228.364 122.076C228.28 121.898 228.233 121.702 228.227 121.502C228.405 112.752 228.33 111.122 228.33 100.602C228.337 100.18 228.498 99.7775 228.778 99.4791C229.058 99.1807 229.436 99.0097 229.831 99.002Z" fill="#BDBBD1"/>
<path d="M236.005 99.002H236.305C236.713 99.002 237.105 99.1748 237.393 99.4823C237.682 99.7899 237.844 100.207 237.844 100.642V120.062C237.754 120.459 237.558 120.821 237.28 121.103C237.002 121.384 236.654 121.575 236.277 121.652L235.977 121.712C235.809 121.766 235.632 121.78 235.458 121.754C235.285 121.728 235.118 121.663 234.97 121.562C234.822 121.462 234.697 121.328 234.602 121.171C234.507 121.014 234.444 120.837 234.419 120.652C234.495 113.422 234.419 111.162 234.419 100.652C234.418 100.432 234.458 100.213 234.538 100.01C234.618 99.806 234.735 99.6218 234.883 99.4678C235.031 99.3137 235.207 99.1931 235.4 99.1131C235.592 99.033 235.798 98.9953 236.005 99.002Z" fill="#BDBBD1"/>
<path d="M242.179 99.002H242.47C242.672 99.0007 242.873 99.0421 243.061 99.1239C243.249 99.2058 243.42 99.3264 243.564 99.4788C243.708 99.6312 243.822 99.8124 243.9 100.012C243.978 100.212 244.018 100.426 244.018 100.642C244.018 111.162 243.971 114.542 244.083 119.112C244.083 119.512 243.398 120.312 242.535 120.452H242.235C241.372 120.602 240.668 120.012 240.668 119.552C240.612 114.162 240.668 111.122 240.668 100.602C240.678 100.179 240.84 99.7766 241.122 99.4785C241.403 99.1803 241.782 99.0096 242.179 99.002Z" fill="#BDBBD1"/>
<path d="M248.343 99.002H248.643C249.053 99.0072 249.444 99.1844 249.732 99.4952C250.02 99.8059 250.182 100.225 250.182 100.662C250.182 111.112 250.125 114.662 250.276 118.662C250.163 119.001 249.957 119.295 249.684 119.506C249.41 119.717 249.083 119.834 248.746 119.842H248.446C247.592 119.842 246.898 119.202 246.889 118.842C246.748 114.702 246.804 111.152 246.804 100.632C246.807 100.199 246.97 99.7842 247.258 99.4788C247.546 99.1734 247.936 99.0019 248.343 99.002Z" fill="#BDBBD1"/>
<path d="M254.516 99.002H254.817C255.208 99.0059 255.583 99.1665 255.868 99.4518C256.153 99.7371 256.327 100.126 256.355 100.542C256.355 109.242 256.355 112.762 256.355 115.942C256.081 116.776 255.544 117.483 254.835 117.942C254.742 118.008 254.645 118.068 254.545 118.122C253.7 118.612 253.015 118.202 253.006 117.872C252.884 114.152 252.94 110.592 252.94 100.672C252.94 100.452 252.981 100.234 253.06 100.031C253.14 99.8273 253.256 99.6428 253.402 99.4876C253.549 99.3324 253.723 99.2096 253.914 99.1262C254.105 99.0429 254.31 99.0007 254.516 99.002Z" fill="#BDBBD1"/>
<path d="M260.69 99.002H260.981C261.333 98.9903 261.678 99.1068 261.96 99.3322C262.241 99.5576 262.442 99.8785 262.529 100.242C262.529 105.932 262.529 109.242 262.529 111.362C262.174 112.15 261.646 112.836 260.99 113.362L260.7 113.602C259.855 114.282 259.18 114.162 259.18 113.932C259.18 111.272 259.18 107.812 259.18 100.402C259.233 100.015 259.415 99.6612 259.692 99.4044C259.969 99.1477 260.323 99.005 260.69 99.002Z" fill="#BDBBD1"/>
<path d="M266.854 99.002H267.155C267.469 98.9893 267.781 99.0706 268.054 99.2367C268.328 99.4028 268.552 99.6471 268.703 99.942C268.703 102.862 268.75 105.592 268.646 107.592C268.273 108.242 267.728 108.76 267.079 109.082L266.789 109.242C265.935 109.702 265.259 109.542 265.269 109.382C265.362 107.502 265.316 104.382 265.316 100.072C265.316 99.702 266.01 99.002 266.854 99.002Z" fill="#BDBBD1"/>
<path d="M272.991 99.0021H273.291C273.598 99.0082 273.898 99.0943 274.166 99.2529C274.435 99.4116 274.662 99.6379 274.83 99.9121C274.83 101.812 274.83 103.422 274.83 107.312C274.83 107.642 274.173 108.172 273.3 107.972L273 107.912C272.127 107.752 271.433 107.132 271.442 106.912C271.508 104.342 271.442 102.052 271.442 99.9121C271.605 99.6307 271.833 99.3989 272.104 99.2395C272.375 99.08 272.681 98.9982 272.991 99.0021Z" fill="#BDBBD1"/>
<path d="M279.202 99.002H279.502C279.809 99.008 280.11 99.0941 280.378 99.2528C280.646 99.4114 280.874 99.6378 281.041 99.9119C281.041 101.812 281.154 103.032 280.9 107.732C280.796 108.092 280.591 108.408 280.313 108.639C280.034 108.87 279.695 109.004 279.343 109.022H279.052C278.702 108.995 278.37 108.851 278.102 108.61C277.834 108.369 277.644 108.044 277.56 107.682C277.738 103.112 277.663 101.822 277.663 99.922C277.829 99.6459 278.057 99.4176 278.325 99.2572C278.593 99.0968 278.894 99.0091 279.202 99.002Z" fill="#BDBBD1"/>
<path d="M285.375 99.002H285.666C285.975 99.0064 286.277 99.0917 286.547 99.2505C286.817 99.4092 287.046 99.6364 287.214 99.9119C287.214 101.812 287.318 103.502 287.074 107.112C286.936 107.465 286.72 107.777 286.444 108.021C286.167 108.265 285.839 108.434 285.488 108.512H285.188C284.866 108.572 284.534 108.504 284.257 108.319C283.98 108.134 283.777 107.847 283.687 107.512C283.949 103.152 283.827 101.792 283.827 99.892C283.997 99.6201 284.228 99.3968 284.497 99.2416C284.767 99.0865 285.069 99.0042 285.375 99.002Z" fill="#BDBBD1"/>
<path d="M291.54 99.002H291.84C292.147 99.008 292.448 99.0941 292.716 99.2528C292.984 99.4114 293.212 99.6378 293.379 99.9119C293.379 101.812 293.445 104.202 293.294 106.212C293.128 106.511 292.905 106.77 292.64 106.973C292.376 107.176 292.075 107.318 291.756 107.392L291.455 107.452C290.592 107.602 289.907 106.932 289.926 106.692C290.123 103.822 290.039 101.812 290.039 99.9119C290.202 99.6432 290.424 99.4203 290.685 99.2619C290.947 99.1036 291.24 99.0144 291.54 99.002Z" fill="#BDBBD1"/>
<path d="M297.713 99.002H298.013C298.32 99.008 298.621 99.0941 298.889 99.2528C299.157 99.4114 299.385 99.6378 299.552 99.9119C299.552 101.812 299.599 104.502 299.496 105.802C299.31 106.058 299.075 106.268 298.806 106.418C298.537 106.568 298.241 106.655 297.938 106.672H297.638C297.343 106.689 297.048 106.628 296.78 106.496C296.512 106.363 296.278 106.163 296.099 105.912C296.221 104.412 296.174 101.802 296.174 99.9119C296.341 99.6378 296.569 99.4114 296.837 99.2528C297.106 99.0941 297.406 99.008 297.713 99.002Z" fill="#BDBBD1"/>
<path d="M303.887 99.002H304.178C304.486 99.0064 304.789 99.0917 305.059 99.2505C305.329 99.4092 305.558 99.6364 305.726 99.9119C305.726 101.852 305.773 104.592 305.66 106.202C305.48 106.451 305.244 106.648 304.973 106.774C304.702 106.899 304.406 106.95 304.112 106.922H303.812C303.504 106.886 303.207 106.778 302.942 106.605C302.678 106.432 302.453 106.199 302.283 105.922C302.386 104.532 302.339 101.822 302.339 99.922C302.506 99.6445 302.735 99.4154 303.005 99.2549C303.275 99.0943 303.578 99.0075 303.887 99.002Z" fill="#BDBBD1"/>
<path d="M310.061 99.002H310.351C310.661 99.0075 310.964 99.0943 311.234 99.2549C311.504 99.4154 311.733 99.6445 311.899 99.922C311.899 101.922 311.899 104.762 311.834 106.922C311.666 107.185 311.431 107.393 311.157 107.52C310.883 107.647 310.581 107.69 310.286 107.642H309.985C309.668 107.593 309.365 107.469 309.099 107.279C308.832 107.088 308.609 106.837 308.447 106.542C308.559 104.692 308.512 101.912 308.512 99.932C308.678 99.6527 308.907 99.4215 309.177 99.2592C309.447 99.097 309.751 99.0086 310.061 99.002Z" fill="#BDBBD1"/>
<path d="M316.225 99.002H316.525C316.834 99.0027 317.137 99.0877 317.406 99.2487C317.676 99.4097 317.902 99.6415 318.063 99.922C318.063 102.022 318.063 104.922 318.007 107.652C317.851 107.936 317.621 108.165 317.344 108.311C317.067 108.457 316.756 108.513 316.45 108.472H316.159C315.834 108.428 315.524 108.3 315.256 108.1C314.988 107.899 314.77 107.632 314.62 107.322C314.733 104.872 314.686 102.012 314.686 99.952C314.844 99.6659 315.069 99.4282 315.338 99.2618C315.608 99.0954 315.913 99.0059 316.225 99.002Z" fill="#BDBBD1"/>
<path d="M322.398 99.002H322.717C323.025 99.0091 323.326 99.0968 323.594 99.2572C323.863 99.4176 324.09 99.6459 324.256 99.922C324.256 102.052 324.303 104.992 324.19 107.922C324.047 108.227 323.826 108.483 323.552 108.66C323.278 108.837 322.963 108.928 322.642 108.922H322.342C322.024 108.905 321.717 108.797 321.452 108.609C321.188 108.42 320.977 108.159 320.841 107.852C320.944 104.972 320.907 102.042 320.907 99.932C321.061 99.6555 321.279 99.4252 321.54 99.2626C321.801 99.1 322.096 99.0104 322.398 99.002Z" fill="#BDBBD1"/>
<path d="M328.572 99.002H328.863C329.172 99.0075 329.475 99.0943 329.745 99.2549C330.015 99.4154 330.244 99.6445 330.411 99.922C330.411 102.052 330.411 104.452 330.354 107.222C330.206 107.548 329.987 107.833 329.717 108.054C329.446 108.274 329.131 108.424 328.797 108.492H328.506C327.652 108.622 326.958 107.952 326.967 107.702C327.071 104.802 327.024 102.002 327.024 99.8719C327.196 99.6038 327.427 99.3844 327.697 99.2328C327.966 99.0812 328.267 99.002 328.572 99.002Z" fill="#BDBBD1"/>
<path d="M334.736 99.002H335.036C335.346 99.0075 335.649 99.0943 335.919 99.2549C336.189 99.4154 336.417 99.6445 336.584 99.922C336.584 102.052 336.584 103.392 336.584 105.812C336.43 106.14 336.213 106.429 335.946 106.66C335.679 106.891 335.369 107.059 335.036 107.152L334.736 107.222C334.453 107.317 334.148 107.311 333.869 107.204C333.589 107.098 333.35 106.897 333.188 106.632C333.263 104.002 333.235 102.052 333.235 99.922C333.397 99.6514 333.619 99.4265 333.88 99.2664C334.141 99.1062 334.435 99.0155 334.736 99.002Z" fill="#BDBBD1"/>
<path d="M340.91 99.002H341.21C341.519 99.0028 341.822 99.0877 342.091 99.2487C342.361 99.4097 342.587 99.6415 342.748 99.922C342.748 102.052 342.748 102.352 342.748 104.442C342.585 104.749 342.362 105.017 342.096 105.227C341.829 105.437 341.524 105.585 341.2 105.662L340.9 105.732C340.046 105.912 339.352 105.342 339.361 105.142C339.361 102.882 339.361 102.052 339.361 99.922C339.524 99.6401 339.752 99.4074 340.023 99.2463C340.294 99.0852 340.599 99.001 340.91 99.002Z" fill="#BDBBD1"/>
<path d="M347.112 99.002H347.412C347.719 99.0091 348.021 99.0968 348.289 99.2572C348.557 99.4176 348.784 99.6459 348.951 99.922V103.852C348.779 104.127 348.55 104.355 348.281 104.518C348.012 104.681 347.711 104.775 347.402 104.792H347.112C346.812 104.816 346.512 104.756 346.241 104.62C345.97 104.483 345.736 104.274 345.563 104.012C345.563 102.012 345.563 102.012 345.563 99.902C345.733 99.6282 345.962 99.403 346.232 99.2461C346.502 99.0891 346.804 99.0053 347.112 99.002Z" fill="#BDBBD1"/>
<path d="M353.257 99.002H353.548C353.857 99.0075 354.16 99.0943 354.43 99.2549C354.7 99.4154 354.929 99.6445 355.096 99.922V103.922C354.93 104.198 354.701 104.425 354.43 104.581C354.159 104.736 353.856 104.816 353.548 104.812H353.257C352.947 104.805 352.643 104.717 352.373 104.555C352.103 104.392 351.875 104.161 351.709 103.882V99.922C351.876 99.6445 352.105 99.4154 352.375 99.2549C352.645 99.0943 352.948 99.0075 353.257 99.002Z" fill="#BDBBD1"/>
<path d="M359.421 99.002H359.721C360.03 99.0027 360.334 99.0877 360.603 99.2487C360.872 99.4097 361.098 99.6415 361.26 99.922V104.032C361.102 104.315 360.877 104.548 360.606 104.706C360.335 104.864 360.03 104.942 359.721 104.932H359.421C359.106 104.916 358.801 104.816 358.532 104.642C358.263 104.467 358.039 104.223 357.882 103.932V99.932C358.047 99.6541 358.274 99.4238 358.542 99.2616C358.811 99.0994 359.113 99.0102 359.421 99.002Z" fill="#BDBBD1"/>
<path d="M365.595 99.002H365.877C366.184 99.0092 366.485 99.0968 366.754 99.2572C367.022 99.4177 367.249 99.646 367.415 99.922V104.152C367.262 104.441 367.038 104.681 366.767 104.844C366.496 105.008 366.188 105.09 365.877 105.082H365.576C365.26 105.073 364.952 104.976 364.682 104.801C364.412 104.625 364.19 104.377 364.038 104.082V99.922C364.201 99.6387 364.43 99.4051 364.703 99.2439C364.976 99.0827 365.283 98.9994 365.595 99.002Z" fill="#BDBBD1"/>
<path d="M371.768 99.002H372.059C372.368 99.0075 372.671 99.0943 372.942 99.2549C373.212 99.4154 373.44 99.6445 373.607 99.922V104.242C373.46 104.544 373.237 104.796 372.964 104.973C372.691 105.149 372.378 105.242 372.059 105.242H371.768C371.45 105.237 371.139 105.141 370.867 104.966C370.595 104.79 370.372 104.54 370.22 104.242V99.922C370.387 99.6445 370.616 99.4154 370.886 99.2549C371.156 99.0943 371.459 99.0075 371.768 99.002Z" fill="#BDBBD1"/>
<path opacity="0.4" d="M46 6L46 195L0.999999 195L1.00001 6L46 6Z" fill="url(#paint62_linear_1:2360)"/>
<g style="mix-blend-mode:multiply" opacity="0.2">
<line x1="38.5" y1="188.5" x2="38.5" y2="178.5" stroke="url(#paint63_linear_1:2360)" stroke-linecap="round"/>
<line x1="54.5" y1="188.5" x2="54.5" y2="178.5" stroke="url(#paint64_linear_1:2360)" stroke-linecap="round"/>
<line x1="70.5" y1="188.5" x2="70.5" y2="178.5" stroke="url(#paint65_linear_1:2360)" stroke-linecap="round"/>
<line x1="86.5" y1="188.5" x2="86.5" y2="178.5" stroke="url(#paint66_linear_1:2360)" stroke-linecap="round"/>
<line x1="102.5" y1="188.5" x2="102.5" y2="178.5" stroke="url(#paint67_linear_1:2360)" stroke-linecap="round"/>
<line x1="118.5" y1="188.5" x2="118.5" y2="178.5" stroke="url(#paint68_linear_1:2360)" stroke-linecap="round"/>
<line x1="134.5" y1="188.5" x2="134.5" y2="178.5" stroke="url(#paint69_linear_1:2360)" stroke-linecap="round"/>
<line x1="150.5" y1="188.5" x2="150.5" y2="178.5" stroke="url(#paint70_linear_1:2360)" stroke-linecap="round"/>
<line x1="166.5" y1="188.5" x2="166.5" y2="178.5" stroke="url(#paint71_linear_1:2360)" stroke-linecap="round"/>
<line x1="182.5" y1="188.5" x2="182.5" y2="178.5" stroke="url(#paint72_linear_1:2360)" stroke-linecap="round"/>
<line x1="198.5" y1="188.5" x2="198.5" y2="178.5" stroke="url(#paint73_linear_1:2360)" stroke-linecap="round"/>
<line x1="214.5" y1="188.5" x2="214.5" y2="178.5" stroke="url(#paint74_linear_1:2360)" stroke-linecap="round"/>
<line x1="230.5" y1="188.5" x2="230.5" y2="178.5" stroke="url(#paint75_linear_1:2360)" stroke-linecap="round"/>
<line x1="246.5" y1="188.5" x2="246.5" y2="178.5" stroke="url(#paint76_linear_1:2360)" stroke-linecap="round"/>
<line x1="262.5" y1="188.5" x2="262.5" y2="178.5" stroke="url(#paint77_linear_1:2360)" stroke-linecap="round"/>
<line x1="278.5" y1="188.5" x2="278.5" y2="178.5" stroke="url(#paint78_linear_1:2360)" stroke-linecap="round"/>
<line x1="294.5" y1="188.5" x2="294.5" y2="178.5" stroke="url(#paint79_linear_1:2360)" stroke-linecap="round"/>
<line x1="310.5" y1="188.5" x2="310.5" y2="178.5" stroke="url(#paint80_linear_1:2360)" stroke-linecap="round"/>
<line x1="326.5" y1="188.5" x2="326.5" y2="178.5" stroke="url(#paint81_linear_1:2360)" stroke-linecap="round"/>
<line x1="342.5" y1="188.5" x2="342.5" y2="178.5" stroke="url(#paint82_linear_1:2360)" stroke-linecap="round"/>
<line x1="358.5" y1="188.5" x2="358.5" y2="178.5" stroke="url(#paint83_linear_1:2360)" stroke-linecap="round"/>
<line x1="30.5" y1="188.5" x2="30.5" y2="169.5" stroke="url(#paint84_linear_1:2360)" stroke-linecap="round"/>
<line x1="46.5" y1="188.5" x2="46.5" y2="169.5" stroke="url(#paint85_linear_1:2360)" stroke-linecap="round"/>
<line x1="62.5" y1="188.5" x2="62.5" y2="169.5" stroke="url(#paint86_linear_1:2360)" stroke-linecap="round"/>
<line x1="78.5" y1="188.5" x2="78.5" y2="169.5" stroke="url(#paint87_linear_1:2360)" stroke-linecap="round"/>
<line x1="94.5" y1="188.5" x2="94.5" y2="169.5" stroke="url(#paint88_linear_1:2360)" stroke-linecap="round"/>
<line x1="110.5" y1="188.5" x2="110.5" y2="169.5" stroke="url(#paint89_linear_1:2360)" stroke-linecap="round"/>
<line x1="126.5" y1="188.5" x2="126.5" y2="169.5" stroke="url(#paint90_linear_1:2360)" stroke-linecap="round"/>
<line x1="142.5" y1="188.5" x2="142.5" y2="169.5" stroke="url(#paint91_linear_1:2360)" stroke-linecap="round"/>
<line x1="158.5" y1="188.5" x2="158.5" y2="169.5" stroke="url(#paint92_linear_1:2360)" stroke-linecap="round"/>
<line x1="174.5" y1="188.5" x2="174.5" y2="169.5" stroke="url(#paint93_linear_1:2360)" stroke-linecap="round"/>
<line x1="190.5" y1="188.5" x2="190.5" y2="169.5" stroke="url(#paint94_linear_1:2360)" stroke-linecap="round"/>
<line x1="206.5" y1="188.5" x2="206.5" y2="169.5" stroke="url(#paint95_linear_1:2360)" stroke-linecap="round"/>
<line x1="222.5" y1="188.5" x2="222.5" y2="169.5" stroke="url(#paint96_linear_1:2360)" stroke-linecap="round"/>
<line x1="238.5" y1="188.5" x2="238.5" y2="169.5" stroke="url(#paint97_linear_1:2360)" stroke-linecap="round"/>
<line x1="254.5" y1="188.5" x2="254.5" y2="169.5" stroke="url(#paint98_linear_1:2360)" stroke-linecap="round"/>
<line x1="270.5" y1="188.5" x2="270.5" y2="169.5" stroke="url(#paint99_linear_1:2360)" stroke-linecap="round"/>
<line x1="286.5" y1="188.5" x2="286.5" y2="169.5" stroke="url(#paint100_linear_1:2360)" stroke-linecap="round"/>
<line x1="302.5" y1="188.5" x2="302.5" y2="169.5" stroke="url(#paint101_linear_1:2360)" stroke-linecap="round"/>
<line x1="318.5" y1="188.5" x2="318.5" y2="169.5" stroke="url(#paint102_linear_1:2360)" stroke-linecap="round"/>
<line x1="334.5" y1="188.5" x2="334.5" y2="169.5" stroke="url(#paint103_linear_1:2360)" stroke-linecap="round"/>
<line x1="350.5" y1="188.5" x2="350.5" y2="169.5" stroke="url(#paint104_linear_1:2360)" stroke-linecap="round"/>
<line x1="366.5" y1="188.5" x2="366.5" y2="169.5" stroke="url(#paint105_linear_1:2360)" stroke-linecap="round"/>
<line x1="6.5" y1="20.5" x2="16.5" y2="20.5" stroke="url(#paint106_linear_1:2360)" stroke-linecap="round"/>
<line x1="6.5" y1="36.5" x2="16.5" y2="36.5" stroke="url(#paint107_linear_1:2360)" stroke-linecap="round"/>
<line x1="6.5" y1="52.5" x2="16.5" y2="52.5" stroke="url(#paint108_linear_1:2360)" stroke-linecap="round"/>
<line x1="6.5" y1="68.5" x2="16.5" y2="68.5" stroke="url(#paint109_linear_1:2360)" stroke-linecap="round"/>
<line x1="6.5" y1="84.5" x2="16.5" y2="84.5" stroke="url(#paint110_linear_1:2360)" stroke-linecap="round"/>
<line x1="6.5" y1="100.5" x2="16.5" y2="100.5" stroke="url(#paint111_linear_1:2360)" stroke-linecap="round"/>
<line x1="6.5" y1="116.5" x2="16.5" y2="116.5" stroke="url(#paint112_linear_1:2360)" stroke-linecap="round"/>
<line x1="6.5" y1="132.5" x2="16.5" y2="132.5" stroke="url(#paint113_linear_1:2360)" stroke-linecap="round"/>
<line x1="6.5" y1="148.5" x2="16.5" y2="148.5" stroke="url(#paint114_linear_1:2360)" stroke-linecap="round"/>
<line x1="6.5" y1="164.5" x2="16.5" y2="164.5" stroke="url(#paint115_linear_1:2360)" stroke-linecap="round"/>
<line x1="6.5" y1="180.5" x2="16.5" y2="180.5" stroke="url(#paint116_linear_1:2360)" stroke-linecap="round"/>
<line x1="6.5" y1="12.5" x2="25.5" y2="12.5" stroke="url(#paint117_linear_1:2360)" stroke-linecap="round"/>
<line x1="6.5" y1="28.5" x2="25.5" y2="28.5" stroke="url(#paint118_linear_1:2360)" stroke-linecap="round"/>
<line x1="6.5" y1="44.5" x2="25.5" y2="44.5" stroke="url(#paint119_linear_1:2360)" stroke-linecap="round"/>
<line x1="6.5" y1="60.5" x2="25.5" y2="60.5" stroke="url(#paint120_linear_1:2360)" stroke-linecap="round"/>
<line x1="6.5" y1="76.5" x2="25.5" y2="76.5" stroke="url(#paint121_linear_1:2360)" stroke-linecap="round"/>
<line x1="6.5" y1="92.5" x2="25.5" y2="92.5" stroke="url(#paint122_linear_1:2360)" stroke-linecap="round"/>
<line x1="6.5" y1="108.5" x2="25.5" y2="108.5" stroke="url(#paint123_linear_1:2360)" stroke-linecap="round"/>
<line x1="6.5" y1="124.5" x2="25.5" y2="124.5" stroke="url(#paint124_linear_1:2360)" stroke-linecap="round"/>
<line x1="6.5" y1="140.5" x2="25.5" y2="140.5" stroke="url(#paint125_linear_1:2360)" stroke-linecap="round"/>
<line x1="6.5" y1="156.5" x2="25.5" y2="156.5" stroke="url(#paint126_linear_1:2360)" stroke-linecap="round"/>
<line x1="6.5" y1="172.5" x2="25.5" y2="172.5" stroke="url(#paint127_linear_1:2360)" stroke-linecap="round"/>
<line x1="6.5" y1="188.5" x2="25.5" y2="188.5" stroke="url(#paint128_linear_1:2360)" stroke-linecap="round"/>
</g>
<g style="mix-blend-mode:multiply">
<line x1="46.5" y1="6" x2="46.5" y2="196" stroke="url(#paint129_linear_1:2360)"/>
<circle cx="46.5" cy="198.5" r="3.5" fill="#90D6ED"/>
<circle cx="46.5" cy="3.5" r="3.5" fill="#90D6ED"/>
</g>
<defs>
<linearGradient id="paint0_linear_1:2360" x1="-16.5" y1="147" x2="187.5" y2="196" gradientUnits="userSpaceOnUse">
<stop stop-color="#2496D6"/>
<stop offset="1" stop-color="#FFEBDB" stop-opacity="0"/>
</linearGradient>
<linearGradient id="paint1_linear_1:2360" x1="371.956" y1="84.3369" x2="371.956" y2="96.0535" gradientUnits="userSpaceOnUse">
<stop offset="0.0718746" stop-color="#77A9E0"/>
<stop offset="1" stop-color="#45B8F0"/>
</linearGradient>
<linearGradient id="paint2_linear_1:2360" x1="365.783" y1="79.6436" x2="365.783" y2="96.0541" gradientUnits="userSpaceOnUse">
<stop offset="0.0718746" stop-color="#77A9E0"/>
<stop offset="1" stop-color="#45B8F0"/>
</linearGradient>
<linearGradient id="paint3_linear_1:2360" x1="359.623" y1="73.0469" x2="359.623" y2="96.0538" gradientUnits="userSpaceOnUse">
<stop offset="0.0718746" stop-color="#77A9E0"/>
<stop offset="1" stop-color="#45B8F0"/>
</linearGradient>
<linearGradient id="paint4_linear_1:2360" x1="353.445" y1="67.8464" x2="353.445" y2="96.0532" gradientUnits="userSpaceOnUse">
<stop offset="0.0718746" stop-color="#77A9E0"/>
<stop offset="1" stop-color="#45B8F0"/>
</linearGradient>
<linearGradient id="paint5_linear_1:2360" x1="347.271" y1="66.4832" x2="347.271" y2="96.0532" gradientUnits="userSpaceOnUse">
<stop offset="0.0718746" stop-color="#77A9E0"/>
<stop offset="1" stop-color="#45B8F0"/>
</linearGradient>
<linearGradient id="paint6_linear_1:2360" x1="341.097" y1="66.4731" x2="341.097" y2="96.0431" gradientUnits="userSpaceOnUse">
<stop offset="0.0718746" stop-color="#77A9E0"/>
<stop offset="1" stop-color="#45B8F0"/>
</linearGradient>
<linearGradient id="paint7_linear_1:2360" x1="334.924" y1="66.4731" x2="334.924" y2="96.0431" gradientUnits="userSpaceOnUse">
<stop offset="0.0718746" stop-color="#77A9E0"/>
<stop offset="1" stop-color="#45B8F0"/>
</linearGradient>
<linearGradient id="paint8_linear_1:2360" x1="328.76" y1="66.4731" x2="328.76" y2="96.0431" gradientUnits="userSpaceOnUse">
<stop offset="0.0718746" stop-color="#77A9E0"/>
<stop offset="1" stop-color="#45B8F0"/>
</linearGradient>
<linearGradient id="paint9_linear_1:2360" x1="322.586" y1="66.3716" x2="322.586" y2="96.0532" gradientUnits="userSpaceOnUse">
<stop offset="0.0718746" stop-color="#77A9E0"/>
<stop offset="1" stop-color="#45B8F0"/>
</linearGradient>
<linearGradient id="paint10_linear_1:2360" x1="316.426" y1="64.3945" x2="316.426" y2="96.0537" gradientUnits="userSpaceOnUse">
<stop offset="0.0718746" stop-color="#77A9E0"/>
<stop offset="1" stop-color="#45B8F0"/>
</linearGradient>
<linearGradient id="paint11_linear_1:2360" x1="310.245" y1="61.2458" x2="310.245" y2="96.0531" gradientUnits="userSpaceOnUse">
<stop offset="0.0718746" stop-color="#77A9E0"/>
<stop offset="1" stop-color="#45B8F0"/>
</linearGradient>
<linearGradient id="paint12_linear_1:2360" x1="304.074" y1="58.5645" x2="304.074" y2="96.0533" gradientUnits="userSpaceOnUse">
<stop offset="0.0718746" stop-color="#77A9E0"/>
<stop offset="1" stop-color="#45B8F0"/>
</linearGradient>
<linearGradient id="paint13_linear_1:2360" x1="297.906" y1="57.6516" x2="297.906" y2="96.0532" gradientUnits="userSpaceOnUse">
<stop offset="0.0718746" stop-color="#77A9E0"/>
<stop offset="1" stop-color="#45B8F0"/>
</linearGradient>
<linearGradient id="paint14_linear_1:2360" x1="291.732" y1="56.6331" x2="291.732" y2="96.0533" gradientUnits="userSpaceOnUse">
<stop offset="0.0718746" stop-color="#77A9E0"/>
<stop offset="1" stop-color="#45B8F0"/>
</linearGradient>
<linearGradient id="paint15_linear_1:2360" x1="285.572" y1="54.8943" x2="285.572" y2="96.0531" gradientUnits="userSpaceOnUse">
<stop offset="0.0718746" stop-color="#77A9E0"/>
<stop offset="1" stop-color="#45B8F0"/>
</linearGradient>
<linearGradient id="paint16_linear_1:2360" x1="279.388" y1="53.3499" x2="279.388" y2="96.0532" gradientUnits="userSpaceOnUse">
<stop offset="0.0718746" stop-color="#77A9E0"/>
<stop offset="1" stop-color="#45B8F0"/>
</linearGradient>
<linearGradient id="paint17_linear_1:2360" x1="273.244" y1="52.9399" x2="273.244" y2="96.0532" gradientUnits="userSpaceOnUse">
<stop offset="0.0718746" stop-color="#77A9E0"/>
<stop offset="1" stop-color="#45B8F0"/>
</linearGradient>
<linearGradient id="paint18_linear_1:2360" x1="267.028" y1="55.7642" x2="267.028" y2="96.0531" gradientUnits="userSpaceOnUse">
<stop offset="0.0718746" stop-color="#77A9E0"/>
<stop offset="1" stop-color="#45B8F0"/>
</linearGradient>
<linearGradient id="paint19_linear_1:2360" x1="260.878" y1="61.8826" x2="260.878" y2="96.0542" gradientUnits="userSpaceOnUse">
<stop offset="0.0718746" stop-color="#77A9E0"/>
<stop offset="1" stop-color="#45B8F0"/>
</linearGradient>
<linearGradient id="paint20_linear_1:2360" x1="254.704" y1="68.2712" x2="254.704" y2="96.0549" gradientUnits="userSpaceOnUse">
<stop offset="0.0718746" stop-color="#77A9E0"/>
<stop offset="1" stop-color="#45B8F0"/>
</linearGradient>
<linearGradient id="paint21_linear_1:2360" x1="248.535" y1="71.2192" x2="248.535" y2="96.0532" gradientUnits="userSpaceOnUse">
<stop offset="0.0718746" stop-color="#77A9E0"/>
<stop offset="1" stop-color="#45B8F0"/>
</linearGradient>
<linearGradient id="paint22_linear_1:2360" x1="242.338" y1="70.2878" x2="242.338" y2="96.0547" gradientUnits="userSpaceOnUse">
<stop offset="0.0718746" stop-color="#77A9E0"/>
<stop offset="1" stop-color="#45B8F0"/>
</linearGradient>
<linearGradient id="paint23_linear_1:2360" x1="236.192" y1="68.658" x2="236.192" y2="96.0539" gradientUnits="userSpaceOnUse">
<stop offset="0.0718746" stop-color="#77A9E0"/>
<stop offset="1" stop-color="#45B8F0"/>
</linearGradient>
<linearGradient id="paint24_linear_1:2360" x1="230.024" y1="67.0789" x2="230.024" y2="96.0531" gradientUnits="userSpaceOnUse">
<stop offset="0.0718746" stop-color="#77A9E0"/>
<stop offset="1" stop-color="#45B8F0"/>
</linearGradient>
<linearGradient id="paint25_linear_1:2360" x1="223.869" y1="66.4365" x2="223.869" y2="96.0531" gradientUnits="userSpaceOnUse">
<stop offset="0.0718746" stop-color="#77A9E0"/>
<stop offset="1" stop-color="#45B8F0"/>
</linearGradient>
<linearGradient id="paint26_linear_1:2360" x1="217.681" y1="61.8281" x2="217.681" y2="96.0532" gradientUnits="userSpaceOnUse">
<stop offset="0.0718746" stop-color="#77A9E0"/>
<stop offset="1" stop-color="#45B8F0"/>
</linearGradient>
<linearGradient id="paint27_linear_1:2360" x1="211.508" y1="54.0503" x2="211.508" y2="96.0531" gradientUnits="userSpaceOnUse">
<stop offset="0.0718746" stop-color="#77A9E0"/>
<stop offset="1" stop-color="#45B8F0"/>
</linearGradient>
<linearGradient id="paint28_linear_1:2360" x1="205.339" y1="46.9565" x2="205.339" y2="96.0532" gradientUnits="userSpaceOnUse">
<stop offset="0.0718746" stop-color="#77A9E0"/>
<stop offset="1" stop-color="#45B8F0"/>
</linearGradient>
<linearGradient id="paint29_linear_1:2360" x1="199.165" y1="44.1633" x2="199.165" y2="96.0538" gradientUnits="userSpaceOnUse">
<stop offset="0.0718746" stop-color="#77A9E0"/>
<stop offset="1" stop-color="#45B8F0"/>
</linearGradient>
<linearGradient id="paint30_linear_1:2360" x1="193.015" y1="46.0779" x2="193.015" y2="96.0537" gradientUnits="userSpaceOnUse">
<stop offset="0.0718746" stop-color="#77A9E0"/>
<stop offset="1" stop-color="#45B8F0"/>
</linearGradient>
<linearGradient id="paint31_linear_1:2360" x1="186.879" y1="50.6086" x2="186.879" y2="96.0531" gradientUnits="userSpaceOnUse">
<stop offset="0.0718746" stop-color="#77A9E0"/>
<stop offset="1" stop-color="#45B8F0"/>
</linearGradient>
<linearGradient id="paint32_linear_1:2360" x1="180.781" y1="55.3916" x2="180.781" y2="96.0533" gradientUnits="userSpaceOnUse">
<stop offset="0.0718746" stop-color="#77A9E0"/>
<stop offset="1" stop-color="#45B8F0"/>
</linearGradient>
<linearGradient id="paint33_linear_1:2360" x1="174.65" y1="57.9431" x2="174.65" y2="96.0531" gradientUnits="userSpaceOnUse">
<stop offset="0.0718746" stop-color="#77A9E0"/>
<stop offset="1" stop-color="#45B8F0"/>
</linearGradient>
<linearGradient id="paint34_linear_1:2360" x1="168.472" y1="58.7786" x2="168.472" y2="96.0532" gradientUnits="userSpaceOnUse">
<stop offset="0.0718746" stop-color="#77A9E0"/>
<stop offset="1" stop-color="#45B8F0"/>
</linearGradient>
<linearGradient id="paint35_linear_1:2360" x1="162.269" y1="60.7966" x2="162.269" y2="96.0531" gradientUnits="userSpaceOnUse">
<stop offset="0.0718746" stop-color="#77A9E0"/>
<stop offset="1" stop-color="#45B8F0"/>
</linearGradient>
<linearGradient id="paint36_linear_1:2360" x1="156.077" y1="62.9519" x2="156.077" y2="96.0533" gradientUnits="userSpaceOnUse">
<stop offset="0.0718746" stop-color="#77A9E0"/>
<stop offset="1" stop-color="#45B8F0"/>
</linearGradient>
<linearGradient id="paint37_linear_1:2360" x1="149.876" y1="64.1016" x2="149.876" y2="96.0532" gradientUnits="userSpaceOnUse">
<stop offset="0.0718746" stop-color="#77A9E0"/>
<stop offset="1" stop-color="#45B8F0"/>
</linearGradient>
<linearGradient id="paint38_linear_1:2360" x1="143.689" y1="64.1033" x2="143.689" y2="96.0533" gradientUnits="userSpaceOnUse">
<stop offset="0.0718746" stop-color="#77A9E0"/>
<stop offset="1" stop-color="#45B8F0"/>
</linearGradient>
<linearGradient id="paint39_linear_1:2360" x1="137.476" y1="64.1033" x2="137.476" y2="96.0538" gradientUnits="userSpaceOnUse">
<stop offset="0.0718746" stop-color="#77A9E0"/>
<stop offset="1" stop-color="#45B8F0"/>
</linearGradient>
<linearGradient id="paint40_linear_1:2360" x1="131.239" y1="64.1033" x2="131.239" y2="96.0533" gradientUnits="userSpaceOnUse">
<stop offset="0.0718746" stop-color="#77A9E0"/>
<stop offset="1" stop-color="#45B8F0"/>
</linearGradient>
<linearGradient id="paint41_linear_1:2360" x1="125.083" y1="64.1033" x2="125.083" y2="96.054" gradientUnits="userSpaceOnUse">
<stop offset="0.0718746" stop-color="#77A9E0"/>
<stop offset="1" stop-color="#45B8F0"/>
</linearGradient>
<linearGradient id="paint42_linear_1:2360" x1="118.965" y1="63.2007" x2="118.965" y2="96.0538" gradientUnits="userSpaceOnUse">
<stop offset="0.0718746" stop-color="#77A9E0"/>
<stop offset="1" stop-color="#45B8F0"/>
</linearGradient>
<linearGradient id="paint43_linear_1:2360" x1="112.773" y1="60.8997" x2="112.773" y2="96.0533" gradientUnits="userSpaceOnUse">
<stop offset="0.0718746" stop-color="#77A9E0"/>
<stop offset="1" stop-color="#45B8F0"/>
</linearGradient>
<linearGradient id="paint44_linear_1:2360" x1="106.594" y1="58.0977" x2="106.594" y2="96.0533" gradientUnits="userSpaceOnUse">
<stop offset="0.0718746" stop-color="#77A9E0"/>
<stop offset="1" stop-color="#45B8F0"/>
</linearGradient>
<linearGradient id="paint45_linear_1:2360" x1="100.434" y1="55.5339" x2="100.434" y2="96.0532" gradientUnits="userSpaceOnUse">
<stop offset="0.0718746" stop-color="#77A9E0"/>
<stop offset="1" stop-color="#45B8F0"/>
</linearGradient>
<linearGradient id="paint46_linear_1:2360" x1="94.2934" y1="52.8567" x2="94.2934" y2="96.0531" gradientUnits="userSpaceOnUse">
<stop offset="0.0718746" stop-color="#77A9E0"/>
<stop offset="1" stop-color="#45B8F0"/>
</linearGradient>
<linearGradient id="paint47_linear_1:2360" x1="88.0634" y1="49.4314" x2="88.0634" y2="96.0533" gradientUnits="userSpaceOnUse">
<stop offset="0.0718746" stop-color="#77A9E0"/>
<stop offset="1" stop-color="#45B8F0"/>
</linearGradient>
<linearGradient id="paint48_linear_1:2360" x1="81.8008" y1="46.4209" x2="81.8008" y2="96.0534" gradientUnits="userSpaceOnUse">
<stop offset="0.0718746" stop-color="#77A9E0"/>
<stop offset="1" stop-color="#45B8F0"/>
</linearGradient>
<linearGradient id="paint49_linear_1:2360" x1="75.594" y1="44.9497" x2="75.594" y2="96.0532" gradientUnits="userSpaceOnUse">
<stop offset="0.0718746" stop-color="#77A9E0"/>
<stop offset="1" stop-color="#45B8F0"/>
</linearGradient>
<linearGradient id="paint50_linear_1:2360" x1="69.4018" y1="43.4941" x2="69.4018" y2="96.0533" gradientUnits="userSpaceOnUse">
<stop offset="0.0718746" stop-color="#77A9E0"/>
<stop offset="1" stop-color="#45B8F0"/>
</linearGradient>
<linearGradient id="paint51_linear_1:2360" x1="63.2214" y1="39.8674" x2="63.2214" y2="96.0534" gradientUnits="userSpaceOnUse">
<stop offset="0.0718746" stop-color="#77A9E0"/>
<stop offset="1" stop-color="#45B8F0"/>
</linearGradient>
<linearGradient id="paint52_linear_1:2360" x1="56.9858" y1="36.0625" x2="56.9858" y2="96.0532" gradientUnits="userSpaceOnUse">
<stop offset="0.0718746" stop-color="#77A9E0"/>
<stop offset="1" stop-color="#45B8F0"/>
</linearGradient>
<linearGradient id="paint53_linear_1:2360" x1="50.8032" y1="34" x2="50.8032" y2="96.0532" gradientUnits="userSpaceOnUse">
<stop offset="0.0718746" stop-color="#77A9E0"/>
<stop offset="1" stop-color="#45B8F0"/>
</linearGradient>
<linearGradient id="paint54_linear_1:2360" x1="44.6867" y1="35.1116" x2="44.6867" y2="96.0534" gradientUnits="userSpaceOnUse">
<stop offset="0.0718746" stop-color="#77A9E0"/>
<stop offset="1" stop-color="#45B8F0"/>
</linearGradient>
<linearGradient id="paint55_linear_1:2360" x1="38.5758" y1="39.1084" x2="38.5758" y2="96.0536" gradientUnits="userSpaceOnUse">
<stop offset="0.0718746" stop-color="#77A9E0"/>
<stop offset="1" stop-color="#45B8F0"/>
</linearGradient>
<linearGradient id="paint56_linear_1:2360" x1="32.4867" y1="43.8792" x2="32.4867" y2="96.0532" gradientUnits="userSpaceOnUse">
<stop offset="0.0718746" stop-color="#77A9E0"/>
<stop offset="1" stop-color="#45B8F0"/>
</linearGradient>
<linearGradient id="paint57_linear_1:2360" x1="26.3645" y1="47.0288" x2="26.3645" y2="96.0532" gradientUnits="userSpaceOnUse">
<stop offset="0.0718746" stop-color="#77A9E0"/>
<stop offset="1" stop-color="#45B8F0"/>
</linearGradient>
<linearGradient id="paint58_linear_1:2360" x1="20.2052" y1="48.7104" x2="20.2052" y2="96.0532" gradientUnits="userSpaceOnUse">
<stop offset="0.0718746" stop-color="#77A9E0"/>
<stop offset="1" stop-color="#45B8F0"/>
</linearGradient>
<linearGradient id="paint59_linear_1:2360" x1="14.0335" y1="54.282" x2="14.0335" y2="96.0532" gradientUnits="userSpaceOnUse">
<stop offset="0.0718746" stop-color="#77A9E0"/>
<stop offset="1" stop-color="#45B8F0"/>
</linearGradient>
<linearGradient id="paint60_linear_1:2360" x1="7.86735" y1="61.2024" x2="7.86735" y2="96.0532" gradientUnits="userSpaceOnUse">
<stop offset="0.0718746" stop-color="#77A9E0"/>
<stop offset="1" stop-color="#45B8F0"/>
</linearGradient>
<linearGradient id="paint61_linear_1:2360" x1="1.69352" y1="66.0691" x2="1.69352" y2="96.0531" gradientUnits="userSpaceOnUse">
<stop offset="0.0718746" stop-color="#77A9E0"/>
<stop offset="1" stop-color="#45B8F0"/>
</linearGradient>
<linearGradient id="paint62_linear_1:2360" x1="46" y1="100.5" x2="1" y2="100.5" gradientUnits="userSpaceOnUse">
<stop stop-color="#2496D6"/>
<stop offset="1" stop-color="#FFEBDB" stop-opacity="0"/>
</linearGradient>
<linearGradient id="paint63_linear_1:2360" x1="40.25" y1="183.5" x2="39" y2="183.5" gradientUnits="userSpaceOnUse">
<stop stop-color="#ED4D5B"/>
<stop offset="1" stop-color="#F9923B"/>
</linearGradient>
<linearGradient id="paint64_linear_1:2360" x1="56.25" y1="183.5" x2="55" y2="183.5" gradientUnits="userSpaceOnUse">
<stop stop-color="#ED4D5B"/>
<stop offset="1" stop-color="#F9923B"/>
</linearGradient>
<linearGradient id="paint65_linear_1:2360" x1="72.25" y1="183.5" x2="71" y2="183.5" gradientUnits="userSpaceOnUse">
<stop stop-color="#ED4D5B"/>
<stop offset="1" stop-color="#F9923B"/>
</linearGradient>
<linearGradient id="paint66_linear_1:2360" x1="88.25" y1="183.5" x2="87" y2="183.5" gradientUnits="userSpaceOnUse">
<stop stop-color="#ED4D5B"/>
<stop offset="1" stop-color="#F9923B"/>
</linearGradient>
<linearGradient id="paint67_linear_1:2360" x1="104.25" y1="183.5" x2="103" y2="183.5" gradientUnits="userSpaceOnUse">
<stop stop-color="#ED4D5B"/>
<stop offset="1" stop-color="#F9923B"/>
</linearGradient>
<linearGradient id="paint68_linear_1:2360" x1="120.25" y1="183.5" x2="119" y2="183.5" gradientUnits="userSpaceOnUse">
<stop stop-color="#ED4D5B"/>
<stop offset="1" stop-color="#F9923B"/>
</linearGradient>
<linearGradient id="paint69_linear_1:2360" x1="136.25" y1="183.5" x2="135" y2="183.5" gradientUnits="userSpaceOnUse">
<stop stop-color="#ED4D5B"/>
<stop offset="1" stop-color="#F9923B"/>
</linearGradient>
<linearGradient id="paint70_linear_1:2360" x1="152.25" y1="183.5" x2="151" y2="183.5" gradientUnits="userSpaceOnUse">
<stop stop-color="#ED4D5B"/>
<stop offset="1" stop-color="#F9923B"/>
</linearGradient>
<linearGradient id="paint71_linear_1:2360" x1="168.25" y1="183.5" x2="167" y2="183.5" gradientUnits="userSpaceOnUse">
<stop stop-color="#ED4D5B"/>
<stop offset="1" stop-color="#F9923B"/>
</linearGradient>
<linearGradient id="paint72_linear_1:2360" x1="184.25" y1="183.5" x2="183" y2="183.5" gradientUnits="userSpaceOnUse">
<stop stop-color="#ED4D5B"/>
<stop offset="1" stop-color="#F9923B"/>
</linearGradient>
<linearGradient id="paint73_linear_1:2360" x1="200.25" y1="183.5" x2="199" y2="183.5" gradientUnits="userSpaceOnUse">
<stop stop-color="#ED4D5B"/>
<stop offset="1" stop-color="#F9923B"/>
</linearGradient>
<linearGradient id="paint74_linear_1:2360" x1="216.25" y1="183.5" x2="215" y2="183.5" gradientUnits="userSpaceOnUse">
<stop stop-color="#ED4D5B"/>
<stop offset="1" stop-color="#F9923B"/>
</linearGradient>
<linearGradient id="paint75_linear_1:2360" x1="232.25" y1="183.5" x2="231" y2="183.5" gradientUnits="userSpaceOnUse">
<stop stop-color="#ED4D5B"/>
<stop offset="1" stop-color="#F9923B"/>
</linearGradient>
<linearGradient id="paint76_linear_1:2360" x1="248.25" y1="183.5" x2="247" y2="183.5" gradientUnits="userSpaceOnUse">
<stop stop-color="#ED4D5B"/>
<stop offset="1" stop-color="#F9923B"/>
</linearGradient>
<linearGradient id="paint77_linear_1:2360" x1="264.25" y1="183.5" x2="263" y2="183.5" gradientUnits="userSpaceOnUse">
<stop stop-color="#ED4D5B"/>
<stop offset="1" stop-color="#F9923B"/>
</linearGradient>
<linearGradient id="paint78_linear_1:2360" x1="280.25" y1="183.5" x2="279" y2="183.5" gradientUnits="userSpaceOnUse">
<stop stop-color="#ED4D5B"/>
<stop offset="1" stop-color="#F9923B"/>
</linearGradient>
<linearGradient id="paint79_linear_1:2360" x1="296.25" y1="183.5" x2="295" y2="183.5" gradientUnits="userSpaceOnUse">
<stop stop-color="#ED4D5B"/>
<stop offset="1" stop-color="#F9923B"/>
</linearGradient>
<linearGradient id="paint80_linear_1:2360" x1="312.25" y1="183.5" x2="311" y2="183.5" gradientUnits="userSpaceOnUse">
<stop stop-color="#ED4D5B"/>
<stop offset="1" stop-color="#F9923B"/>
</linearGradient>
<linearGradient id="paint81_linear_1:2360" x1="328.25" y1="183.5" x2="327" y2="183.5" gradientUnits="userSpaceOnUse">
<stop stop-color="#ED4D5B"/>
<stop offset="1" stop-color="#F9923B"/>
</linearGradient>
<linearGradient id="paint82_linear_1:2360" x1="344.25" y1="183.5" x2="343" y2="183.5" gradientUnits="userSpaceOnUse">
<stop stop-color="#ED4D5B"/>
<stop offset="1" stop-color="#F9923B"/>
</linearGradient>
<linearGradient id="paint83_linear_1:2360" x1="360.25" y1="183.5" x2="359" y2="183.5" gradientUnits="userSpaceOnUse">
<stop stop-color="#ED4D5B"/>
<stop offset="1" stop-color="#F9923B"/>
</linearGradient>
<linearGradient id="paint84_linear_1:2360" x1="32.25" y1="179" x2="31" y2="179" gradientUnits="userSpaceOnUse">
<stop stop-color="#ED4D5B"/>
<stop offset="1" stop-color="#F9923B"/>
</linearGradient>
<linearGradient id="paint85_linear_1:2360" x1="48.25" y1="179" x2="47" y2="179" gradientUnits="userSpaceOnUse">
<stop stop-color="#ED4D5B"/>
<stop offset="1" stop-color="#F9923B"/>
</linearGradient>
<linearGradient id="paint86_linear_1:2360" x1="64.25" y1="179" x2="63" y2="179" gradientUnits="userSpaceOnUse">
<stop stop-color="#ED4D5B"/>
<stop offset="1" stop-color="#F9923B"/>
</linearGradient>
<linearGradient id="paint87_linear_1:2360" x1="80.25" y1="179" x2="79" y2="179" gradientUnits="userSpaceOnUse">
<stop stop-color="#ED4D5B"/>
<stop offset="1" stop-color="#F9923B"/>
</linearGradient>
<linearGradient id="paint88_linear_1:2360" x1="96.25" y1="179" x2="95" y2="179" gradientUnits="userSpaceOnUse">
<stop stop-color="#ED4D5B"/>
<stop offset="1" stop-color="#F9923B"/>
</linearGradient>
<linearGradient id="paint89_linear_1:2360" x1="112.25" y1="179" x2="111" y2="179" gradientUnits="userSpaceOnUse">
<stop stop-color="#ED4D5B"/>
<stop offset="1" stop-color="#F9923B"/>
</linearGradient>
<linearGradient id="paint90_linear_1:2360" x1="128.25" y1="179" x2="127" y2="179" gradientUnits="userSpaceOnUse">
<stop stop-color="#ED4D5B"/>
<stop offset="1" stop-color="#F9923B"/>
</linearGradient>
<linearGradient id="paint91_linear_1:2360" x1="144.25" y1="179" x2="143" y2="179" gradientUnits="userSpaceOnUse">
<stop stop-color="#ED4D5B"/>
<stop offset="1" stop-color="#F9923B"/>
</linearGradient>
<linearGradient id="paint92_linear_1:2360" x1="160.25" y1="179" x2="159" y2="179" gradientUnits="userSpaceOnUse">
<stop stop-color="#ED4D5B"/>
<stop offset="1" stop-color="#F9923B"/>
</linearGradient>
<linearGradient id="paint93_linear_1:2360" x1="176.25" y1="179" x2="175" y2="179" gradientUnits="userSpaceOnUse">
<stop stop-color="#ED4D5B"/>
<stop offset="1" stop-color="#F9923B"/>
</linearGradient>
<linearGradient id="paint94_linear_1:2360" x1="192.25" y1="179" x2="191" y2="179" gradientUnits="userSpaceOnUse">
<stop stop-color="#ED4D5B"/>
<stop offset="1" stop-color="#F9923B"/>
</linearGradient>
<linearGradient id="paint95_linear_1:2360" x1="208.25" y1="179" x2="207" y2="179" gradientUnits="userSpaceOnUse">
<stop stop-color="#ED4D5B"/>
<stop offset="1" stop-color="#F9923B"/>
</linearGradient>
<linearGradient id="paint96_linear_1:2360" x1="224.25" y1="179" x2="223" y2="179" gradientUnits="userSpaceOnUse">
<stop stop-color="#ED4D5B"/>
<stop offset="1" stop-color="#F9923B"/>
</linearGradient>
<linearGradient id="paint97_linear_1:2360" x1="240.25" y1="179" x2="239" y2="179" gradientUnits="userSpaceOnUse">
<stop stop-color="#ED4D5B"/>
<stop offset="1" stop-color="#F9923B"/>
</linearGradient>
<linearGradient id="paint98_linear_1:2360" x1="256.25" y1="179" x2="255" y2="179" gradientUnits="userSpaceOnUse">
<stop stop-color="#ED4D5B"/>
<stop offset="1" stop-color="#F9923B"/>
</linearGradient>
<linearGradient id="paint99_linear_1:2360" x1="272.25" y1="179" x2="271" y2="179" gradientUnits="userSpaceOnUse">
<stop stop-color="#ED4D5B"/>
<stop offset="1" stop-color="#F9923B"/>
</linearGradient>
<linearGradient id="paint100_linear_1:2360" x1="288.25" y1="179" x2="287" y2="179" gradientUnits="userSpaceOnUse">
<stop stop-color="#ED4D5B"/>
<stop offset="1" stop-color="#F9923B"/>
</linearGradient>
<linearGradient id="paint101_linear_1:2360" x1="304.25" y1="179" x2="303" y2="179" gradientUnits="userSpaceOnUse">
<stop stop-color="#ED4D5B"/>
<stop offset="1" stop-color="#F9923B"/>
</linearGradient>
<linearGradient id="paint102_linear_1:2360" x1="320.25" y1="179" x2="319" y2="179" gradientUnits="userSpaceOnUse">
<stop stop-color="#ED4D5B"/>
<stop offset="1" stop-color="#F9923B"/>
</linearGradient>
<linearGradient id="paint103_linear_1:2360" x1="336.25" y1="179" x2="335" y2="179" gradientUnits="userSpaceOnUse">
<stop stop-color="#ED4D5B"/>
<stop offset="1" stop-color="#F9923B"/>
</linearGradient>
<linearGradient id="paint104_linear_1:2360" x1="352.25" y1="179" x2="351" y2="179" gradientUnits="userSpaceOnUse">
<stop stop-color="#ED4D5B"/>
<stop offset="1" stop-color="#F9923B"/>
</linearGradient>
<linearGradient id="paint105_linear_1:2360" x1="368.25" y1="179" x2="367" y2="179" gradientUnits="userSpaceOnUse">
<stop stop-color="#ED4D5B"/>
<stop offset="1" stop-color="#F9923B"/>
</linearGradient>
<linearGradient id="paint106_linear_1:2360" x1="11.5" y1="22.25" x2="11.5" y2="21" gradientUnits="userSpaceOnUse">
<stop stop-color="#ED4D5B"/>
<stop offset="1" stop-color="#F9923B"/>
</linearGradient>
<linearGradient id="paint107_linear_1:2360" x1="11.5" y1="38.25" x2="11.5" y2="37" gradientUnits="userSpaceOnUse">
<stop stop-color="#ED4D5B"/>
<stop offset="1" stop-color="#F9923B"/>
</linearGradient>
<linearGradient id="paint108_linear_1:2360" x1="11.5" y1="54.25" x2="11.5" y2="53" gradientUnits="userSpaceOnUse">
<stop stop-color="#ED4D5B"/>
<stop offset="1" stop-color="#F9923B"/>
</linearGradient>
<linearGradient id="paint109_linear_1:2360" x1="11.5" y1="70.25" x2="11.5" y2="69" gradientUnits="userSpaceOnUse">
<stop stop-color="#ED4D5B"/>
<stop offset="1" stop-color="#F9923B"/>
</linearGradient>
<linearGradient id="paint110_linear_1:2360" x1="11.5" y1="86.25" x2="11.5" y2="85" gradientUnits="userSpaceOnUse">
<stop stop-color="#ED4D5B"/>
<stop offset="1" stop-color="#F9923B"/>
</linearGradient>
<linearGradient id="paint111_linear_1:2360" x1="11.5" y1="102.25" x2="11.5" y2="101" gradientUnits="userSpaceOnUse">
<stop stop-color="#ED4D5B"/>
<stop offset="1" stop-color="#F9923B"/>
</linearGradient>
<linearGradient id="paint112_linear_1:2360" x1="11.5" y1="118.25" x2="11.5" y2="117" gradientUnits="userSpaceOnUse">
<stop stop-color="#ED4D5B"/>
<stop offset="1" stop-color="#F9923B"/>
</linearGradient>
<linearGradient id="paint113_linear_1:2360" x1="11.5" y1="134.25" x2="11.5" y2="133" gradientUnits="userSpaceOnUse">
<stop stop-color="#ED4D5B"/>
<stop offset="1" stop-color="#F9923B"/>
</linearGradient>
<linearGradient id="paint114_linear_1:2360" x1="11.5" y1="150.25" x2="11.5" y2="149" gradientUnits="userSpaceOnUse">
<stop stop-color="#ED4D5B"/>
<stop offset="1" stop-color="#F9923B"/>
</linearGradient>
<linearGradient id="paint115_linear_1:2360" x1="11.5" y1="166.25" x2="11.5" y2="165" gradientUnits="userSpaceOnUse">
<stop stop-color="#ED4D5B"/>
<stop offset="1" stop-color="#F9923B"/>
</linearGradient>
<linearGradient id="paint116_linear_1:2360" x1="11.5" y1="182.25" x2="11.5" y2="181" gradientUnits="userSpaceOnUse">
<stop stop-color="#ED4D5B"/>
<stop offset="1" stop-color="#F9923B"/>
</linearGradient>
<linearGradient id="paint117_linear_1:2360" x1="16" y1="14.25" x2="16" y2="13" gradientUnits="userSpaceOnUse">
<stop stop-color="#ED4D5B"/>
<stop offset="1" stop-color="#F9923B"/>
</linearGradient>
<linearGradient id="paint118_linear_1:2360" x1="16" y1="30.25" x2="16" y2="29" gradientUnits="userSpaceOnUse">
<stop stop-color="#ED4D5B"/>
<stop offset="1" stop-color="#F9923B"/>
</linearGradient>
<linearGradient id="paint119_linear_1:2360" x1="16" y1="46.25" x2="16" y2="45" gradientUnits="userSpaceOnUse">
<stop stop-color="#ED4D5B"/>
<stop offset="1" stop-color="#F9923B"/>
</linearGradient>
<linearGradient id="paint120_linear_1:2360" x1="16" y1="62.25" x2="16" y2="61" gradientUnits="userSpaceOnUse">
<stop stop-color="#ED4D5B"/>
<stop offset="1" stop-color="#F9923B"/>
</linearGradient>
<linearGradient id="paint121_linear_1:2360" x1="16" y1="78.25" x2="16" y2="77" gradientUnits="userSpaceOnUse">
<stop stop-color="#ED4D5B"/>
<stop offset="1" stop-color="#F9923B"/>
</linearGradient>
<linearGradient id="paint122_linear_1:2360" x1="16" y1="94.25" x2="16" y2="93" gradientUnits="userSpaceOnUse">
<stop stop-color="#ED4D5B"/>
<stop offset="1" stop-color="#F9923B"/>
</linearGradient>
<linearGradient id="paint123_linear_1:2360" x1="16" y1="110.25" x2="16" y2="109" gradientUnits="userSpaceOnUse">
<stop stop-color="#ED4D5B"/>
<stop offset="1" stop-color="#F9923B"/>
</linearGradient>
<linearGradient id="paint124_linear_1:2360" x1="16" y1="126.25" x2="16" y2="125" gradientUnits="userSpaceOnUse">
<stop stop-color="#ED4D5B"/>
<stop offset="1" stop-color="#F9923B"/>
</linearGradient>
<linearGradient id="paint125_linear_1:2360" x1="16" y1="142.25" x2="16" y2="141" gradientUnits="userSpaceOnUse">
<stop stop-color="#ED4D5B"/>
<stop offset="1" stop-color="#F9923B"/>
</linearGradient>
<linearGradient id="paint126_linear_1:2360" x1="16" y1="158.25" x2="16" y2="157" gradientUnits="userSpaceOnUse">
<stop stop-color="#ED4D5B"/>
<stop offset="1" stop-color="#F9923B"/>
</linearGradient>
<linearGradient id="paint127_linear_1:2360" x1="16" y1="174.25" x2="16" y2="173" gradientUnits="userSpaceOnUse">
<stop stop-color="#ED4D5B"/>
<stop offset="1" stop-color="#F9923B"/>
</linearGradient>
<linearGradient id="paint128_linear_1:2360" x1="16" y1="190.25" x2="16" y2="189" gradientUnits="userSpaceOnUse">
<stop stop-color="#ED4D5B"/>
<stop offset="1" stop-color="#F9923B"/>
</linearGradient>
<linearGradient id="paint129_linear_1:2360" x1="45.9999" y1="215" x2="46" y2="6" gradientUnits="userSpaceOnUse">
<stop stop-color="#2496D6"/>
<stop offset="1" stop-color="#85D3FF"/>
</linearGradient>
</defs>
</svg>
