<svg width="317" height="277" viewBox="0 0 317 277" fill="none" xmlns="http://www.w3.org/2000/svg">
<path d="M283.137 5H33.8631C17.9225 5 5 18.2953 5 34.696V201.304C5 217.705 17.9225 231 33.8631 231H283.137C299.078 231 312 217.705 312 201.304V34.696C312 18.2953 299.078 5 283.137 5Z" fill="white" stroke="#2C3863" stroke-width="9" stroke-miterlimit="10"/>
<path d="M248.5 173.248V174.713C248.5 176.231 247.27 177.461 245.752 177.461H71.9951C70.4775 177.461 69.2472 176.231 69.2472 174.713V173.248C69.2472 171.73 70.4775 170.5 71.9951 170.5H245.752C247.27 170.5 248.5 171.73 248.5 173.248Z" fill="#2C3863" stroke="#2C3863"/>
<path d="M259.5 183.336V184.808C259.5 186.418 258.415 187.572 257.246 187.572H60.7535C59.5852 187.572 58.5 186.418 58.5 184.808V183.336C58.5 181.727 59.5852 180.572 60.7535 180.572H257.246C258.415 180.572 259.5 181.727 259.5 183.336Z" fill="#2C3863" stroke="#2C3863"/>
<path d="M247.5 193.264V194.736C247.5 195.448 247.122 196.128 246.44 196.646C245.758 197.165 244.793 197.5 243.707 197.5H74.2927C73.2067 197.5 72.2421 197.165 71.5599 196.646C70.8781 196.128 70.5 195.448 70.5 194.736V193.264C70.5 192.552 70.8781 191.872 71.5599 191.354C72.2421 190.835 73.2067 190.5 74.2927 190.5H243.707C244.793 190.5 245.758 190.835 246.44 191.354C247.122 191.872 247.5 192.552 247.5 193.264Z" fill="#2C3863" stroke="#2C3863"/>
<path d="M56.5 151.434C56.5 145.395 61.3952 140.5 67.4338 140.5H251.05C257.088 140.5 261.984 145.395 261.984 151.434C261.984 157.472 257.088 162.368 251.05 162.368H67.4338C61.3952 162.368 56.5 157.472 56.5 151.434Z" fill="#2C3863" stroke="#2C3863"/>
<path d="M247 28L71 28C66.0294 28 62 32.0294 62 37L62 121C62 125.971 66.0294 130 71 130H247C251.971 130 256 125.971 256 121V37C256 32.0294 251.971 28 247 28Z" fill="#D7EDF9"/>
<path opacity="0.8" d="M274.337 245.49H43.0001C36.5196 245.49 30.519 243.435 25.6143 239.942C23.4942 239.685 18.2285 238.539 14.127 236C17.6856 248.596 29.2649 257.827 43.0001 257.827H274.337C287.953 257.827 299.45 248.756 303.116 236.327C297.208 239.127 292.689 240.16 291.169 240.327C286.369 243.586 280.575 245.49 274.337 245.49Z" fill="#2C3863"/>
<path opacity="0.4" d="M263.809 265.522H53.2766C47.3789 265.522 41.9179 263.64 37.4543 260.438C35.5248 260.204 30.7327 259.153 27 256.827C30.2386 268.369 40.7766 276.827 53.2766 276.827H263.809C276.201 276.827 286.664 268.515 290 257.126C284.624 259.692 280.511 260.639 279.127 260.791C274.759 263.778 269.487 265.522 263.809 265.522Z" fill="#2C3863"/>
</svg>
