<svg width="317" height="268" viewBox="0 0 317 268" fill="none" xmlns="http://www.w3.org/2000/svg">
<path d="M283.565 5H33.9076C17.9424 5 5 17.9424 5 33.9076V196.092C5 212.058 17.9424 225 33.9076 225H283.565C299.53 225 312.473 212.058 312.473 196.092V33.9076C312.473 17.9424 299.53 5 283.565 5Z" fill="white" stroke="#2C3863" stroke-width="9" stroke-miterlimit="10"/>
<path d="M226.617 108.176V109.641C226.617 111.158 225.387 112.389 223.869 112.389L50.1123 112.389C48.5947 112.389 47.3644 111.158 47.3644 109.641V108.176C47.3644 106.658 48.5947 105.428 50.1123 105.428L223.869 105.428C225.387 105.428 226.617 106.658 226.617 108.176Z" fill="#2C3863" stroke="#2C3863"/>
<path d="M252.5 118.264V119.736C252.5 121.336 251.399 122.5 250.192 122.5L49.808 122.5C48.6013 122.5 47.5 121.336 47.5 119.736V118.264C47.5 116.664 48.6013 115.5 49.808 115.5L250.192 115.5C251.399 115.5 252.5 116.664 252.5 118.264Z" fill="#2C3863" stroke="#2C3863"/>
<path d="M181.037 128.649V130.114C181.037 131.632 179.807 132.862 178.29 132.862H50.1119C48.5943 132.862 47.3641 131.632 47.3641 130.114V128.649C47.3641 127.131 48.5943 125.901 50.1119 125.901L178.29 125.901C179.807 125.901 181.037 127.131 181.037 128.649Z" fill="#2C3863" stroke="#2C3863"/>
<path d="M156.174 138.883V140.348C156.174 141.866 154.944 143.096 153.426 143.096H50.1121C48.5945 143.096 47.3642 141.866 47.3642 140.348V138.883C47.3642 137.365 48.5945 136.135 50.1121 136.135H153.426C154.944 136.135 156.174 137.365 156.174 138.883Z" fill="#2C3863" stroke="#2C3863"/>
<path d="M47.3645 66.461C47.3645 60.4224 52.2597 55.5272 58.2983 55.5272L241.914 55.5272C247.953 55.5272 252.848 60.4224 252.848 66.461C252.848 72.4996 247.953 77.3948 241.914 77.3948L58.2983 77.3948C52.2597 77.3948 47.3645 72.4996 47.3645 66.461Z" fill="#2C3863" stroke="#2C3863"/>
<path d="M73.7699 209.286C84.7522 209.286 93.6551 200.383 93.6551 189.401C93.6551 178.419 84.7522 169.516 73.7699 169.516C62.7876 169.516 53.8848 178.419 53.8848 189.401C53.8848 200.383 62.7876 209.286 73.7699 209.286Z" stroke="#2C3863" stroke-width="5" stroke-miterlimit="10"/>
<path d="M252.885 209.77C263.867 209.77 272.77 200.867 272.77 189.885C272.77 178.903 263.867 170 252.885 170C241.903 170 233 178.903 233 189.885C233 200.867 241.903 209.77 252.885 209.77Z" fill="#D7EDF9"/>
<path d="M257.343 194.311C254.322 197.332 250.586 199.698 247.515 199.698C246.129 199.698 244.917 199.216 243.938 198.154C243.39 197.548 243 196.809 243 196.079C243 195.564 243.199 195.058 243.713 194.701L246.992 192.385C247.457 192.053 247.864 191.887 248.246 191.887C248.719 191.887 249.167 192.152 249.665 192.634L250.437 193.397C250.553 193.514 250.694 193.555 250.844 193.555C250.993 193.555 251.143 193.497 251.259 193.447C251.898 193.107 253.052 192.169 254.123 191.09C255.202 190.019 256.148 188.882 256.472 188.226C256.53 188.11 256.58 187.969 256.58 187.819C256.58 187.687 256.538 187.554 256.422 187.429L255.667 186.641C255.185 186.134 254.919 185.686 254.919 185.213C254.919 184.823 255.094 184.424 255.417 183.951L257.684 180.755C258.065 180.224 258.597 180 259.169 180C259.858 180 260.581 180.324 261.211 180.93C262.241 181.934 262.697 183.163 262.697 184.516C262.697 187.595 260.373 191.289 257.343 194.311Z" fill="#2C3863"/>
<path opacity="0.8" d="M275.21 236.49H43.8731C37.3926 236.49 31.392 234.435 26.4874 230.942C24.3672 230.685 19.1016 229.539 15 227C18.5586 239.596 30.1379 248.827 43.8731 248.827H275.21C288.826 248.827 300.323 239.756 303.989 227.327C298.081 230.127 293.562 231.16 292.042 231.327C287.242 234.586 281.448 236.49 275.21 236.49Z" fill="#2C3863"/>
<path opacity="0.4" d="M264.682 256.522H54.1496C48.2519 256.522 42.7909 254.64 38.3274 251.438C36.3979 251.204 31.6058 250.153 27.873 247.827C31.1116 259.369 41.6496 267.827 54.1496 267.827H264.682C277.074 267.827 287.537 259.515 290.873 248.126C285.497 250.692 281.384 251.639 280 251.791C275.633 254.778 270.36 256.522 264.682 256.522Z" fill="#2C3863"/>
</svg>
