<svg width="22" height="24" viewBox="0 0 22 24" fill="none" xmlns="http://www.w3.org/2000/svg">
<path d="M15.5365 5.64291V16.2012C15.5382 16.2222 15.5382 16.2434 15.5365 16.2644V19.589C15.5484 20.2609 15.3454 20.9222 14.9508 21.4976C14.5596 22.0579 14.0041 22.5153 13.3427 22.8217C12.6214 23.1514 11.8179 23.3176 11.0051 23.3053C10.5878 23.3071 10.1717 23.2661 9.76523 23.1832C9.38261 23.1064 9.01342 22.9848 8.66749 22.8217C8.00609 22.5153 7.45064 22.0579 7.05942 21.4976C6.6673 20.9236 6.46506 20.2647 6.47545 19.595V18.0133C6.46714 17.9695 6.46313 17.9252 6.46346 17.8808V3.97534C6.46346 3.72884 6.57478 3.49243 6.77294 3.31813C6.9711 3.14382 7.23986 3.0459 7.52009 3.0459C7.80033 3.0459 8.06909 3.14382 8.26725 3.31813C8.4654 3.49243 8.57673 3.72884 8.57673 3.97534V13.3661V19.461C8.57114 19.8526 8.67962 20.2389 8.89183 20.5832C9.09037 20.9095 9.38645 21.1819 9.7481 21.3711C10.1291 21.5577 10.5579 21.6557 10.994 21.6557C11.43 21.6557 11.8589 21.5577 12.2398 21.3711C12.6009 21.1813 12.8968 20.909 13.0961 20.5832C13.3077 20.2388 13.4156 19.8525 13.4095 19.461V5.64291C13.4038 5.5176 13.4269 5.39257 13.4774 5.27532C13.528 5.15806 13.605 5.051 13.7037 4.96056C13.8025 4.87012 13.921 4.79816 14.0522 4.74901C14.1833 4.69986 14.3244 4.67452 14.467 4.67452C14.6096 4.67452 14.7507 4.69986 14.8818 4.74901C15.013 4.79816 15.1315 4.87012 15.2303 4.96056C15.329 5.051 15.406 5.15806 15.4566 5.27532C15.5071 5.39257 15.5302 5.5176 15.5245 5.64291H15.5365Z" fill="#BDBBD1"/>
<path d="M1.74001 12.3453C1.74473 12.4726 1.72573 12.5997 1.68415 12.7188C1.64257 12.838 1.57927 12.9468 1.49805 13.0387C1.41683 13.1306 1.31936 13.2038 1.2115 13.2537C1.10364 13.3037 0.987602 13.3294 0.870358 13.3294C0.753114 13.3294 0.637079 13.3037 0.529217 13.2537C0.421354 13.2038 0.323888 13.1306 0.242668 13.0387C0.161449 12.9468 0.0981496 12.838 0.0565704 12.7188C0.0149911 12.5997 -0.00401108 12.4726 0.000704211 12.3453V8.70464C-0.00401108 8.57729 0.0149911 8.45022 0.0565704 8.33106C0.0981496 8.21189 0.161449 8.10308 0.242668 8.01117C0.323888 7.91925 0.421354 7.84612 0.529217 7.79616C0.637079 7.74621 0.753114 7.72046 0.870358 7.72046C0.987602 7.72046 1.10364 7.74621 1.2115 7.79616C1.31936 7.84612 1.41683 7.91925 1.49805 8.01117C1.57927 8.10308 1.64257 8.21189 1.68415 8.33106C1.72573 8.45022 1.74473 8.57729 1.74001 8.70464V12.3453Z" fill="#BDBBD1"/>
<path d="M5.10949 15.0526C5.09902 15.3044 4.98831 15.5425 4.80054 15.7171C4.61277 15.8916 4.3625 15.9891 4.10213 15.9891C3.84177 15.9891 3.5915 15.8916 3.40373 15.7171C3.21596 15.5425 3.10524 15.3044 3.09477 15.0526V6.93258C3.10524 6.6808 3.21596 6.4427 3.40373 6.26814C3.5915 6.09358 3.84177 5.99609 4.10213 5.99609C4.3625 5.99609 4.61277 6.09358 4.80054 6.26814C4.98831 6.4427 5.09902 6.6808 5.10949 6.93258V15.0526Z" fill="#BDBBD1"/>
<path d="M22.0001 11.9109C22.0001 12.1332 21.9084 12.3464 21.7452 12.5035C21.582 12.6607 21.3606 12.749 21.1298 12.749C20.8989 12.749 20.6775 12.6607 20.5143 12.5035C20.3511 12.3464 20.2594 12.1332 20.2594 11.9109V10.0091C20.2594 9.78676 20.3511 9.57358 20.5143 9.41639C20.6775 9.2592 20.8989 9.1709 21.1298 9.1709C21.3606 9.1709 21.582 9.2592 21.7452 9.41639C21.9084 9.57358 22.0001 9.78676 22.0001 10.0091V11.9109Z" fill="#BDBBD1"/>
<path d="M18.9067 16.8595C18.8962 17.0891 18.7855 17.3062 18.5977 17.4654C18.41 17.6246 18.1597 17.7135 17.8993 17.7135C17.639 17.7135 17.3887 17.6246 17.2009 17.4654C17.0132 17.3062 16.9024 17.0891 16.892 16.8595V5.07686C16.9024 4.84727 17.0132 4.63015 17.2009 4.47097C17.3887 4.3118 17.639 4.2229 17.8993 4.2229C18.1597 4.2229 18.41 4.3118 18.5977 4.47097C18.7855 4.63015 18.8962 4.84727 18.9067 5.07686V16.8595Z" fill="#BDBBD1"/>
<path d="M10.9487 4.91694e-06C10.6781 0.00120825 10.4189 0.100607 10.2278 0.276504C10.0368 0.452402 9.92928 0.690514 9.92885 0.938868V19.3211C9.92929 19.57 10.0372 19.8086 10.229 19.9846C10.4208 20.1606 10.6808 20.2596 10.9521 20.26H11.0332C11.3046 20.26 11.5648 20.1611 11.7567 19.985C11.9486 19.8089 12.0564 19.5701 12.0564 19.3211V0.938868C12.0564 0.815319 12.0298 0.692984 11.9782 0.578878C11.9266 0.464771 11.8509 0.361136 11.7555 0.273915C11.6602 0.186694 11.547 0.117601 11.4225 0.0705977C11.2979 0.0235944 11.1645 -0.000394919 11.0299 4.91694e-06H10.9487Z" fill="#BDBBD1"/>
</svg>
